<?xml version="1.0" standalone="no"?>
<!DOCTYPE svg PUBLIC "-//W3C//DTD SVG 20010904//EN"
 "http://www.w3.org/TR/2001/REC-SVG-20010904/DTD/svg10.dtd">
<svg version="1.0" xmlns="http://www.w3.org/2000/svg"
 width="652.000000pt" height="383.000000pt" viewBox="0 0 652.000000 383.000000"
 preserveAspectRatio="xMidYMid meet">

<g transform="translate(0.000000,383.000000) scale(0.100000,-0.100000)"
fill="#D50000" stroke="none">
<path d="M3874 3603 c-44 -47 -317 -462 -424 -643 -56 -96 -149 -242 -205
-325 -55 -82 -122 -184 -148 -225 -26 -42 -60 -86 -78 -99 -21 -15 -48 -59
-85 -134 -67 -138 -110 -198 -165 -228 -24 -13 -67 -54 -97 -91 -53 -66 -56
-68 -101 -68 -26 0 -55 -6 -66 -13 -11 -8 -42 -19 -70 -26 -28 -6 -81 -33
-120 -59 -66 -45 -101 -57 -227 -82 -27 -5 -57 -15 -69 -24 -13 -9 -33 -12
-54 -9 -44 7 -145 -32 -196 -75 -25 -22 -54 -36 -86 -41 -64 -10 -104 -29
-188 -85 -75 -51 -98 -53 -137 -14 -19 19 -28 20 -102 15 -44 -4 -202 -9 -351
-13 -186 -5 -278 -11 -295 -19 -14 -7 -53 -40 -87 -74 -35 -35 -70 -61 -82
-61 -11 0 -25 -10 -32 -22 -6 -13 -26 -39 -45 -58 -53 -56 -67 -100 -75 -245
-3 -71 -10 -142 -14 -158 -11 -42 37 -80 206 -164 289 -144 741 -256 1204
-298 500 -45 549 -45 950 -5 330 33 355 34 355 20 0 -11 -93 -81 -170 -128
-74 -44 -199 -83 -224 -70 -24 13 -276 -40 -283 -60 -8 -19 3 -25 24 -13 35
21 236 62 247 51 18 -18 -9 -31 -95 -45 l-84 -13 86 -1 c61 -1 91 3 105 14 10
8 37 15 60 15 112 1 321 85 525 212 l104 65 315 -8 c173 -4 419 -15 545 -24
643 -44 1149 -23 1274 53 58 36 77 75 97 207 21 144 14 286 -17 339 -20 34
-22 52 -23 209 -2 160 -5 184 -40 337 -39 170 -65 247 -122 362 -36 71 -61
154 -93 308 -43 204 -54 288 -55 420 0 124 3 146 36 275 43 167 58 258 58 358
0 126 -38 135 -268 58 -215 -71 -285 -85 -406 -78 -56 3 -132 14 -171 24 l-70
18 -7 58 c-4 32 -15 73 -24 92 -37 78 -225 254 -315 295 -61 27 -95 26 -125
-7z m-31 -623 c56 -44 39 -137 -28 -166 -33 -14 -49 -12 -91 8 -51 24 -59 105
-15 149 37 36 94 40 134 9z m-214 -361 c64 -23 78 -111 24 -160 l-26 -24 7 25
c19 71 19 87 -5 104 -27 18 -71 21 -101 5 -23 -12 -31 -8 -23 14 6 15 60 46
81 47 6 0 25 -5 43 -11z m-1 -86 c2 -12 -4 -34 -14 -48 -35 -53 -29 -232 13
-353 8 -25 66 -154 128 -287 125 -264 140 -303 155 -401 15 -95 -3 -288 -35
-366 -27 -66 -121 -199 -295 -416 -201 -252 -337 -365 -595 -494 -185 -93
-265 -116 -149 -42 33 21 85 57 116 81 197 151 780 706 821 782 34 63 45 124
53 292 5 115 3 158 -10 213 -21 86 -94 259 -213 499 -102 206 -123 273 -122
387 1 136 30 183 109 178 27 -2 36 -8 38 -25z m1018 -101 c125 -39 235 -150
279 -284 24 -71 23 -216 -1 -278 -23 -61 -86 -149 -129 -183 -20 -16 -61 -40
-93 -55 -51 -24 -68 -27 -167 -26 -104 0 -114 2 -185 36 -126 59 -215 169
-251 311 -17 69 -6 185 24 249 33 73 124 168 197 207 88 47 218 56 326 23z
m-1567 -162 c18 -21 43 -35 78 -44 29 -8 72 -25 95 -39 69 -39 102 -56 121
-61 9 -3 17 -12 17 -21 0 -12 -4 -13 -17 -6 -10 5 -79 10 -153 13 -118 3 -140
6 -171 26 -20 12 -46 22 -58 22 -27 0 -26 13 3 76 21 44 34 59 55 63 3 1 16
-13 30 -29z m358 -102 c71 -66 -4 -199 -95 -167 -30 10 -62 47 -62 70 0 7 9 6
25 -5 13 -9 28 -16 32 -16 4 0 1 5 -7 10 -13 8 -13 10 2 10 9 0 20 -4 23 -10
11 -17 34 -11 50 14 21 32 8 59 -43 85 l-37 19 25 10 c31 13 58 6 87 -20z
m-509 -278 c44 -22 95 -54 112 -70 31 -29 32 -31 15 -50 -17 -19 -19 -18 -95
20 -43 22 -98 44 -123 50 -49 13 -77 3 -145 -48 -50 -38 -49 -20 2 47 82 107
110 113 234 51z m220 -70 c67 -100 -65 -215 -149 -131 -16 16 -29 37 -29 45 0
19 8 20 40 1 33 -19 65 -19 84 1 24 23 19 49 -14 87 -34 39 -32 47 13 38 21
-5 40 -19 55 -41z m-550 -72 c3 -15 -4 -18 -48 -18 -53 0 -60 13 -16 30 31 13
60 7 64 -12z m9 -80 c51 -43 113 -113 113 -127 0 -15 -22 -14 -46 4 -12 8 -53
21 -92 29 -38 8 -84 22 -101 30 -16 9 -37 16 -46 16 -9 0 -26 5 -38 12 -21 11
-18 13 38 40 81 38 123 37 172 -4z m176 -48 c32 -26 44 -79 27 -121 -35 -84
-159 -84 -192 0 -15 40 7 49 40 18 30 -28 70 -35 90 -15 20 20 13 56 -18 91
-16 19 -30 37 -30 41 0 14 60 4 83 -14z m-578 -20 c-3 -5 -14 -10 -23 -10 -15
0 -15 2 -2 10 20 13 33 13 25 0z m-29 -53 c46 -32 114 -116 114 -141 0 -6 -12
-19 -26 -29 -32 -24 -66 -13 -157 48 -37 24 -85 54 -108 65 -46 24 -45 27 25
64 64 34 94 33 152 -7z m-219 7 c-3 -3 -12 -4 -19 -1 -8 3 -5 6 6 6 11 1 17
-2 13 -5z m-47 -21 c0 -3 -14 -18 -31 -32 -35 -30 -48 -76 -49 -172 0 -61 -2
-67 -22 -73 -13 -3 -28 -6 -35 -6 -18 0 -33 58 -33 127 0 59 3 67 30 93 44 41
140 85 140 63z m810 -23 c0 -5 -4 -10 -10 -10 -5 0 -10 5 -10 10 0 6 5 10 10
10 6 0 10 -4 10 -10z m-370 -62 c31 -34 27 -92 -9 -129 -23 -23 -38 -29 -72
-29 -25 0 -50 7 -61 17 -29 26 -22 36 23 29 61 -10 93 13 86 63 -3 20 -8 44
-12 54 -10 25 19 22 45 -5z m-1030 -109 c0 -5 -17 -36 -38 -67 -21 -31 -65
-101 -97 -154 -31 -54 -63 -98 -70 -98 -48 0 -531 210 -549 238 -3 5 7 21 24
35 36 31 69 34 385 42 126 3 231 8 234 10 9 10 111 5 111 -6z m568 -78 c5 -46
-51 -101 -103 -101 -48 0 -70 13 -85 49 -14 34 -6 81 13 81 7 0 18 -14 26 -31
29 -66 103 -62 115 6 9 44 30 42 34 -4z m-1318 -45 c41 -27 352 -166 425 -189
228 -73 491 -120 1095 -198 l325 -42 548 -4 c301 -3 547 -8 547 -13 0 -4 -17
-25 -39 -46 l-38 -39 -714 0 c-542 1 -721 4 -743 13 -25 11 -28 16 -22 47 5
27 3 36 -12 44 -10 5 -88 17 -173 25 -349 36 -440 49 -564 81 -131 34 -362
111 -379 126 -6 5 -16 9 -23 9 -8 0 -79 31 -158 70 -147 71 -157 79 -135 121
14 24 18 24 60 -5z m-20 -89 c53 -30 120 -65 149 -77 30 -11 63 -26 75 -33 12
-6 39 -17 61 -23 22 -7 105 -35 185 -63 212 -73 472 -118 890 -154 29 -2 38
-28 15 -47 -11 -9 -18 -10 -29 -1 -7 6 -21 9 -30 5 -9 -3 -23 -1 -30 5 -10 8
-16 9 -21 1 -3 -6 -11 -7 -18 -3 -6 3 -25 8 -41 9 -17 2 -49 6 -71 8 -22 3
-65 6 -95 7 -30 0 -58 3 -63 6 -6 3 -33 7 -61 7 -28 1 -61 8 -73 14 -17 9 -23
10 -23 1 0 -7 -8 -9 -22 -4 -13 3 -36 8 -53 10 -59 7 -97 15 -108 22 -7 4 -20
6 -30 5 -10 -2 -24 2 -32 8 -8 7 -18 9 -23 6 -5 -3 -20 1 -35 9 -14 7 -28 11
-31 8 -3 -3 -17 2 -31 11 -14 9 -30 14 -35 11 -5 -3 -21 5 -35 19 -14 14 -25
21 -25 16 0 -20 -29 -9 -49 18 -12 15 -18 19 -15 10 11 -32 -23 -19 -45 17 -9
15 -11 16 -7 3 7 -22 -17 -24 -34 -3 -7 8 -16 13 -20 10 -5 -3 -29 4 -54 15
-26 11 -50 20 -54 21 -4 0 -16 6 -27 12 -20 11 -26 13 -45 16 -5 0 -14 16 -19
34 -7 25 -9 27 -10 10 -1 -26 -19 -31 -27 -8 -4 8 -13 15 -20 15 -8 0 -17 6
-20 14 -3 8 -14 16 -25 19 -12 3 -19 14 -19 29 0 24 18 50 29 44 3 -2 49 -28
101 -59z m-87 -55 c125 -81 498 -223 717 -272 52 -12 104 -25 115 -30 11 -5
40 -8 64 -7 25 1 46 -3 48 -9 2 -6 27 -9 63 -8 33 2 60 0 60 -4 0 -5 25 -7 55
-6 53 2 72 -7 40 -20 -8 -3 -15 -10 -15 -15 0 -6 6 -8 13 -5 7 2 24 -7 37 -21
23 -25 23 -25 4 -47 l-19 -23 22 18 c13 11 27 16 35 11 7 -4 10 -3 5 1 -4 5 1
17 10 28 18 19 17 19 -4 6 -21 -12 -25 -11 -49 13 -34 34 -24 48 35 48 39 0
52 -4 64 -22 13 -19 16 -20 16 -5 1 13 10 17 44 17 51 0 62 -7 44 -29 -10 -13
-10 -14 3 -5 8 6 25 11 38 12 28 1 29 -22 2 -65 -11 -18 -15 -33 -10 -33 6 0
10 -13 10 -30 0 -16 -3 -30 -8 -30 -4 0 -7 -15 -7 -32 l0 -33 -57 -2 c-32 -1
-58 1 -58 4 0 4 12 20 27 35 36 37 24 36 -15 -2 -36 -34 -71 -38 -95 -12 -16
17 -15 20 12 47 17 15 36 25 44 22 11 -4 13 0 10 14 -3 10 -12 19 -20 19 -8 0
-12 -4 -9 -8 3 -5 -8 -22 -24 -37 -29 -28 -30 -28 -51 -9 l-22 19 14 -23 c13
-21 12 -25 -6 -38 -11 -8 -26 -12 -33 -9 -8 3 -25 5 -39 5 -19 0 -24 4 -21 18
3 12 -1 18 -12 18 -11 0 -16 -6 -12 -14 4 -12 -3 -13 -39 -7 -70 12 -75 18
-35 46 20 13 36 27 36 32 0 12 -8 8 -34 -18 -14 -14 -31 -25 -39 -25 -20 0
-50 37 -41 51 4 7 3 10 -3 6 -15 -10 -57 39 -49 58 3 10 2 14 -5 10 -6 -4 -20
1 -32 12 -22 18 -22 18 -6 -2 8 -11 36 -45 62 -76 26 -31 47 -59 47 -63 0 -3
-16 -6 -36 -6 -29 0 -35 3 -30 16 5 14 4 15 -9 4 -13 -11 -20 -9 -41 11 -13
12 -22 29 -20 36 3 7 -1 10 -10 6 -19 -7 -18 -10 14 -39 l27 -26 -25 6 c-14 3
-31 6 -39 6 -8 0 -11 6 -7 16 5 14 4 15 -9 4 -11 -9 -28 -10 -72 -2 -32 6 -61
7 -65 4 -10 -10 176 -47 362 -72 85 -12 172 -24 193 -27 30 -5 37 -2 37 11 0
16 11 21 23 9 4 -3 2 -12 -4 -19 -10 -13 42 -21 163 -27 31 -1 48 -7 48 -14 0
-7 -4 -13 -9 -13 -45 0 -584 75 -679 95 -330 67 -848 265 -860 328 -3 15 3 13
36 -11 22 -15 73 -43 114 -60 127 -54 500 -193 532 -198 30 -4 30 -4 6 6 -33
15 -35 17 -22 32 7 9 6 17 -4 26 -12 11 -14 9 -14 -7 0 -11 -4 -22 -10 -26 -5
-3 -71 19 -147 48 -76 30 -193 75 -259 101 -131 50 -159 71 -152 111 4 16 1
25 -8 25 -7 0 -15 6 -18 13 -6 13 4 -30 11 -50 3 -7 0 -13 -6 -13 -6 0 -11 7
-11 16 0 8 -4 13 -9 9 -5 -3 -21 0 -35 6 -23 11 -26 18 -26 58 0 55 24 138 47
163 9 10 18 18 19 18 2 0 37 -22 77 -48z m3288 28 c20 -11 27 -50 9 -50 -5 0
-10 4 -10 9 0 16 -38 23 -60 11 -13 -7 -20 -21 -20 -41 0 -24 6 -33 30 -43 31
-13 30 -26 -1 -26 -23 0 -59 46 -59 77 0 30 42 73 70 73 12 0 30 -5 41 -10z
m-586 -25 c52 -51 21 -135 -48 -135 -53 0 -86 54 -66 108 21 55 74 68 114 27z
m2303 -197 c2 -11 -11 -26 -37 -43 -30 -18 -41 -32 -41 -50 0 -14 -1 -25 -2
-25 -2 0 -37 -6 -78 -14 -41 -8 -167 -25 -280 -36 -188 -20 -233 -22 -535 -15
-181 5 -444 7 -582 5 -140 -1 -253 1 -253 6 0 5 17 28 38 51 l38 41 204 -5
c168 -4 243 -1 415 17 116 12 316 25 445 30 251 10 556 35 605 49 40 13 59 9
63 -11z m-5130 -56 c-3 -20 18 -52 35 -52 5 0 2 9 -8 20 -10 11 -14 20 -9 20
16 0 33 -15 59 -50 17 -23 25 -28 25 -17 0 16 2 16 38 1 20 -10 101 -40 180
-69 78 -28 148 -57 154 -63 6 -6 17 -8 25 -5 7 3 22 -2 33 -12 10 -9 23 -14
28 -11 11 7 136 -34 140 -46 2 -4 7 -6 11 -4 4 3 36 -1 72 -8 35 -7 86 -17
112 -20 39 -6 57 -16 93 -52 25 -24 50 -44 56 -44 7 0 2 9 -10 20 -26 24 -28
32 -7 24 8 -4 15 -1 15 5 0 6 -14 11 -31 11 -18 0 -28 4 -24 10 9 15 77 1 93
-18 7 -9 12 -11 12 -4 0 7 14 12 31 12 16 0 28 -4 25 -9 -3 -4 6 -6 19 -3 15
2 25 0 25 -7 0 -6 5 -11 11 -11 5 0 7 5 4 10 -7 11 81 5 115 -7 8 -3 33 -6 55
-8 22 -1 70 -6 108 -10 75 -8 73 -6 61 -99 l-7 -46 -46 0 c-51 0 -265 25 -346
40 -27 5 -88 14 -135 20 -47 6 -101 15 -120 20 -19 5 -80 19 -135 31 -168 36
-405 107 -500 151 -133 60 -275 140 -286 160 -11 20 9 138 24 138 4 0 7 -8 5
-18z m5164 -49 c5 -77 -5 -101 -42 -105 -24 -3 -25 -5 -21 -63 2 -33 4 -77 4
-97 1 -30 5 -38 19 -38 11 0 18 -7 18 -19 0 -21 -46 -81 -61 -81 -6 0 -9 47
-8 118 2 64 2 162 0 216 l-4 99 34 18 c53 28 56 25 61 -48z m-110 -103 c1 -38
2 -77 2 -87 2 -36 -173 -73 -468 -99 -207 -18 -586 -14 -1056 11 -151 8 -294
15 -317 15 -24 0 -43 4 -43 9 0 9 28 44 107 134 l25 29 636 -3 637 -4 210 28
c115 15 211 30 214 32 2 3 15 5 28 5 22 0 23 -4 25 -70z m-2630 0 c350 0 639
-4 642 -8 3 -5 -26 -39 -64 -77 l-70 -69 -162 -12 c-449 -34 -898 -41 -1117
-18 l-64 7 7 85 c3 46 9 89 13 95 4 6 37 7 92 3 47 -4 373 -6 723 -6z m2723
-100 c-3 -5 -13 -10 -21 -10 -8 0 -12 5 -9 10 3 6 13 10 21 10 8 0 12 -4 9
-10z m-88 -126 c-3 -53 -10 -91 -18 -100 -17 -16 -168 -40 -359 -55 -177 -14
-506 -7 -910 20 -162 11 -402 23 -533 27 -131 3 -237 10 -235 14 2 3 34 35 71
70 l68 63 137 -7 c75 -3 270 -13 432 -21 591 -31 1071 -9 1290 60 25 7 49 14
54 14 5 1 6 -37 3 -85z m-2189 27 c-1 -6 -37 -39 -78 -75 -72 -62 -77 -65
-140 -71 -36 -3 -193 -19 -349 -36 -251 -28 -306 -30 -480 -26 -108 3 -209 10
-226 15 l-30 9 3 79 c2 43 7 83 12 88 5 5 69 3 147 -4 222 -20 571 -13 963 19
140 12 182 12 178 2z"/>
<path d="M3762 2949 c-29 -11 -47 -56 -31 -76 25 -29 49 -35 75 -18 50 33 11
116 -44 94z"/>
<path d="M4705 2360 c3 -5 8 -10 11 -10 2 0 4 5 4 10 0 6 -5 10 -11 10 -5 0
-7 -4 -4 -10z"/>
<path d="M390 1065 c-11 -13 -10 -14 5 -9 10 4 21 1 27 -7 7 -11 8 -10 6 5 -4
25 -22 31 -38 11z"/>
<path d="M350 1039 c0 -5 5 -7 10 -4 6 3 10 8 10 11 0 2 -4 4 -10 4 -5 0 -10
-5 -10 -11z"/>
<path d="M430 1007 c0 -7 7 -20 14 -30 13 -17 14 -16 12 7 -1 25 -26 47 -26
23z"/>
<path d="M367 967 c-2 -6 2 -18 9 -25 12 -11 14 -9 14 7 0 23 -16 36 -23 18z"/>
<path d="M532 959 c2 -6 8 -10 13 -10 5 0 11 4 13 10 2 6 -4 11 -13 11 -9 0
-15 -5 -13 -11z"/>
<path d="M460 932 c0 -11 7 -22 15 -26 9 -3 15 0 15 8 0 7 -7 19 -15 26 -12
10 -15 9 -15 -8z"/>
<path d="M560 896 c0 -8 7 -16 15 -20 13 -4 14 -2 5 14 -13 23 -20 26 -20 6z"/>
<path d="M669 882 c7 -12 10 -26 7 -31 -3 -5 2 -11 12 -13 26 -7 22 12 -6 42
-23 24 -24 24 -13 2z"/>
<path d="M493 868 c1 -14 8 -31 14 -37 10 -9 12 -8 10 6 -1 10 -8 27 -14 38
-10 18 -11 17 -10 -7z"/>
<path d="M604 818 c0 -23 11 -23 36 0 18 16 18 17 -9 18 -20 1 -27 -4 -27 -18z"/>
<path d="M804 825 c-10 -8 -14 -15 -8 -15 6 0 17 7 24 15 16 19 9 19 -16 0z"/>
<path d="M924 790 c0 -11 6 -22 13 -24 7 -3 13 1 13 8 0 7 -6 18 -13 24 -10 8
-13 6 -13 -8z"/>
<path d="M730 786 c0 -8 7 -16 15 -20 9 -3 15 0 15 8 0 8 -7 16 -15 20 -9 3
-15 0 -15 -8z"/>
<path d="M1025 754 c0 -12 7 -27 15 -32 12 -7 15 -4 15 14 0 12 -7 27 -15 32
-12 7 -15 4 -15 -14z"/>
<path d="M840 745 c0 -8 7 -15 15 -15 8 0 15 4 15 9 0 5 -7 11 -15 15 -9 3
-15 0 -15 -9z"/>
<path d="M1127 730 c-6 -21 28 -20 41 1 9 14 7 17 -13 15 -13 0 -26 -8 -28
-16z"/>
<path d="M1247 726 c-3 -8 -17 -22 -32 -32 -21 -14 -28 -14 -42 -3 -15 13 -15
12 -5 -6 9 -17 6 -24 -16 -43 l-27 -23 35 18 c19 10 45 30 58 46 13 15 30 27
37 27 7 0 15 7 19 15 3 9 0 15 -8 15 -8 0 -16 -6 -19 -14z"/>
<path d="M960 716 c0 -8 -12 -23 -27 -31 -16 -9 -19 -13 -8 -10 11 4 28 10 38
12 19 6 23 28 7 38 -5 3 -10 -1 -10 -9z"/>
<path d="M1363 715 c0 -8 6 -15 12 -15 6 0 12 7 12 15 0 8 -6 15 -12 15 -6 0
-12 -7 -12 -15z"/>
<path d="M1472 689 c-27 -34 -38 -36 -66 -11 -21 17 -21 17 -3 -5 11 -12 16
-27 12 -32 -3 -7 2 -11 14 -11 12 0 21 -4 21 -10 0 -5 5 -10 12 -10 6 0 5 7
-5 18 -16 17 -15 20 13 47 l30 29 22 -23 c18 -21 20 -26 8 -45 -12 -19 -12
-20 4 -7 15 13 21 13 39 1 20 -12 21 -12 8 4 -12 14 -11 19 5 39 l19 22 -23
-20 -24 -20 -29 33 c-16 17 -30 32 -31 31 -2 0 -13 -13 -26 -30z"/>
<path d="M1064 678 c0 -22 2 -22 25 1 18 18 18 19 -3 17 -14 0 -22 -8 -22 -18z"/>
<path d="M1834 669 c-3 -6 -14 -9 -23 -6 -11 3 -16 -3 -16 -18 0 -12 5 -21 10
-18 11 4 49 53 41 53 -3 0 -8 -5 -12 -11z"/>
<path d="M1100 616 c0 -9 5 -16 10 -16 6 0 10 4 10 9 0 6 -4 13 -10 16 -5 3
-10 -1 -10 -9z"/>
<path d="M1600 587 c0 -8 7 -14 15 -14 8 0 15 6 15 14 0 7 -7 13 -15 13 -8 0
-15 -6 -15 -13z"/>
<path d="M1857 583 c-12 -11 -8 -23 8 -23 8 0 15 7 15 15 0 16 -12 20 -23 8z"/>
<path d="M3074 1049 c-17 -19 -17 -23 -3 -47 20 -36 61 -41 83 -10 20 29 20
34 -4 58 -26 26 -52 25 -76 -1z"/>
<path d="M595 670 c3 -5 8 -10 11 -10 2 0 4 5 4 10 0 6 -5 10 -11 10 -5 0 -7
-4 -4 -10z"/>
<path d="M1070 511 c0 -7 -4 -9 -10 -6 -5 3 -10 1 -10 -4 0 -6 4 -11 9 -11 13
0 25 20 17 27 -3 4 -6 1 -6 -6z"/>
<path d="M1110 496 c0 -2 7 -7 16 -10 8 -3 12 -2 9 4 -6 10 -25 14 -25 6z"/>
<path d="M1171 477 c2 -1 13 -9 24 -17 19 -14 19 -14 6 3 -7 9 -18 17 -24 17
-6 0 -8 -1 -6 -3z"/>
</g>
</svg>
