<?xml version="1.0" standalone="no"?>
<!DOCTYPE svg PUBLIC "-//W3C//DTD SVG 20010904//EN"
 "http://www.w3.org/TR/2001/REC-SVG-20010904/DTD/svg10.dtd">
<svg version="1.0" xmlns="http://www.w3.org/2000/svg"
 width="560.000000pt" height="445.000000pt" viewBox="0 0 560.000000 445.000000"
 preserveAspectRatio="xMidYMid meet">

<g transform="translate(0.000000,445.000000) scale(0.100000,-0.100000)"
fill="#000000" stroke="none">
<path d="M3427 3283 c-65 -79 -137 -186 -217 -323 -37 -63 -44 -83 -43 -127 0
-49 -1 -52 -29 -58 -57 -13 -118 -84 -118 -139 0 -14 -4 -28 -10 -31 -5 -3
-10 -18 -10 -33 0 -29 -34 -92 -49 -92 -11 0 -81 -136 -81 -157 0 -7 -12 -18
-27 -24 -60 -23 -94 -42 -103 -60 -6 -10 -15 -52 -22 -94 -10 -67 -15 -78 -39
-90 -37 -19 -109 -112 -109 -140 0 -13 9 -45 20 -71 11 -26 19 -49 17 -51 -4
-4 -57 14 -57 19 0 2 4 18 9 36 5 17 6 32 2 32 -12 0 -59 -49 -93 -97 -31 -42
-99 -103 -116 -103 -23 0 -112 -58 -164 -107 -31 -29 -64 -53 -73 -53 -9 0
-50 -16 -92 -35 -42 -19 -82 -35 -90 -35 -8 0 -26 -9 -40 -20 -14 -11 -37 -20
-52 -20 -31 0 -128 -49 -189 -96 -130 -99 -468 -173 -1003 -219 -188 -17 -323
-44 -374 -75 -64 -40 -125 -137 -144 -232 -9 -41 -19 -61 -37 -73 -14 -9 -29
-26 -33 -38 -5 -12 -17 -41 -26 -64 -17 -40 -17 -47 -1 -110 19 -80 34 -104
87 -143 85 -61 420 -145 779 -194 63 -9 144 -20 180 -26 125 -19 146 -22 239
-27 83 -5 96 -3 108 13 11 16 13 16 13 1 0 -25 32 -37 100 -37 45 0 62 4 67
15 5 13 8 13 20 -5 12 -17 25 -20 84 -20 56 0 71 3 76 17 5 14 8 13 14 -5 8
-20 15 -22 89 -22 66 0 82 3 87 17 5 14 8 13 15 -6 8 -21 12 -22 85 -17 43 3
89 5 103 4 113 -4 182 -1 189 11 6 10 10 10 16 2 4 -8 41 -11 111 -10 58 1
108 -1 111 -5 14 -13 168 -6 190 9 14 10 24 12 28 5 9 -15 25 -12 19 4 -8 21
-37 29 -49 13 -6 -9 -39 -16 -89 -20 -73 -5 -80 -4 -97 16 -16 20 -18 20 -24
4 -10 -25 -171 -25 -191 1 -13 16 -15 16 -28 0 -15 -21 -72 -26 -60 -5 4 6 -2
3 -14 -7 -22 -19 -23 -19 -55 4 -17 12 -26 17 -19 9 6 -7 12 -16 12 -21 0 -11
-33 4 -47 21 -12 14 -14 14 -27 -1 -10 -14 -28 -18 -78 -18 -57 0 -66 3 -71
20 -7 26 -37 26 -44 0 -5 -17 -14 -20 -58 -20 -62 0 -85 7 -85 25 0 18 -24 35
-36 27 -6 -4 -14 -15 -17 -26 -5 -11 -13 -16 -23 -12 -9 3 -35 6 -59 6 -34 0
-44 4 -48 20 -6 24 -47 28 -47 5 0 -12 -13 -15 -60 -15 -55 0 -61 2 -70 25
-11 30 -49 34 -57 7 -4 -15 -12 -17 -59 -12 -30 3 -57 7 -59 8 -3 1 -12 2 -22
2 -14 0 -14 3 3 23 l19 22 -26 -23 -26 -22 -164 26 c-90 14 -218 34 -284 44
-102 16 -399 78 -458 96 -15 5 -16 8 -5 22 10 14 9 14 -8 -1 -20 -16 -25 -16
-55 -3 -19 7 -52 21 -74 31 -49 20 -112 77 -126 112 -5 14 -8 27 -6 29 1 2 33
-8 70 -21 37 -14 100 -32 140 -40 83 -17 161 -40 337 -100 69 -23 175 -54 235
-69 61 -16 117 -31 125 -34 8 -3 22 -7 30 -8 147 -20 255 -32 295 -33 64 0
456 -28 560 -40 44 -5 134 -13 200 -16 66 -4 134 -9 150 -11 74 -9 1045 9
1063 20 6 4 28 -8 49 -28 l38 -35 -32 -1 c-22 0 -36 6 -43 20 -12 23 -35 26
-47 6 -5 -8 -36 -16 -84 -20 -64 -6 -77 -5 -82 8 -8 20 -43 21 -51 1 -3 -9
-20 -15 -43 -16 -21 -1 -49 -5 -63 -10 -16 -5 0 -6 45 -3 39 3 73 11 77 17 5
8 12 6 25 -5 15 -14 32 -16 96 -11 44 3 84 12 92 19 11 11 14 11 19 -1 7 -20
221 -22 229 -2 4 9 8 9 15 -2 15 -21 180 -11 197 13 11 14 13 15 19 1 8 -23
171 -22 184 2 9 15 11 15 26 1 13 -13 31 -15 93 -11 48 3 82 11 89 19 8 9 14
10 21 3 6 -6 50 -14 97 -16 83 -6 86 -5 95 18 8 21 10 22 16 7 6 -14 20 -17
78 -17 90 0 117 7 117 28 1 14 2 14 14 -1 10 -14 28 -18 84 -18 79 0 102 6
102 26 0 8 5 14 10 14 6 0 10 -7 10 -15 0 -10 9 -15 28 -14 23 2 24 2 5 6 -13
2 -23 10 -23 18 0 21 -30 27 -37 7 -10 -27 -24 -32 -92 -32 l-65 0 30 33 29
32 -33 -29 c-30 -28 -33 -29 -45 -11 -13 17 -14 17 -28 -2 -8 -11 -28 -23 -45
-27 -25 -6 -38 -2 -65 21 l-34 27 24 -27 24 -27 -36 0 c-30 0 -37 4 -37 20 0
14 -7 20 -21 20 -12 0 -23 -8 -26 -20 -5 -18 -14 -20 -81 -20 -59 0 -78 4 -88
18 -13 16 -15 16 -33 -5 -17 -20 -29 -23 -89 -23 -53 0 -71 4 -76 15 -7 19
-30 19 -46 0 -14 -17 -155 -22 -165 -5 -10 15 -45 12 -45 -5 0 -11 -18 -15
-77 -17 -68 -3 -80 0 -96 17 -18 20 -18 20 -33 -3 -15 -20 -44 -31 -44 -15 0
4 10 18 23 32 15 18 11 16 -16 -7 -47 -39 -75 -40 -111 -4 l-27 29 78 7 c43 4
161 7 263 6 161 -1 644 23 692 34 10 2 21 0 24 -5 3 -6 10 -6 17 -1 7 5 104
12 217 16 255 7 617 25 730 35 51 5 92 4 104 -1 12 -7 16 -7 12 0 -5 8 66 22
117 22 25 0 23 -46 -4 -60 -11 -7 -22 -10 -23 -8 -2 2 -7 11 -13 21 -9 17 -11
16 -28 -9 l-17 -27 47 5 c26 3 51 10 57 16 12 12 11 -5 3 282 -6 172 -11 231
-22 249 -12 18 -13 32 -5 65 20 77 24 161 12 246 -6 47 -13 96 -15 110 -1 14
-8 61 -14 105 -6 44 -20 166 -30 271 -11 106 -27 214 -35 240 -8 27 -24 90
-35 139 -17 75 -26 94 -51 115 -17 14 -30 31 -30 38 0 8 -14 62 -31 120 -53
187 -58 206 -64 264 -7 80 -51 193 -90 231 -71 71 -98 81 -235 87 -93 4 -168
15 -295 44 -301 67 -368 86 -470 133 -55 25 -124 56 -154 68 -47 20 -58 30
-85 81 -41 78 -174 210 -252 252 -50 26 -73 32 -122 32 l-60 0 -65 -77z m206
51 c55 -28 157 -115 208 -176 51 -61 85 -118 72 -118 -5 0 -44 12 -88 25 -121
38 -228 35 -306 -8 l-37 -20 -36 29 c-20 16 -36 33 -36 37 0 23 55 119 85 148
19 19 40 49 46 67 12 37 40 42 92 16z m-116 -29 c-4 -8 -14 -15 -23 -15 -16 0
-16 2 1 20 20 22 31 20 22 -5z m-37 -30 c0 -2 -11 -17 -25 -32 -43 -48 -53
-61 -49 -65 2 -2 -1 -21 -7 -41 -9 -35 -34 -49 -52 -31 -10 10 33 65 44 58 6
-3 9 0 7 7 -3 15 61 108 75 109 4 0 7 -2 7 -5z m-82 -218 c38 -35 46 -56 29
-75 -8 -9 -22 -33 -32 -52 -10 -18 -24 -41 -33 -49 -18 -19 -62 -110 -62 -131
-1 -37 -16 -42 -54 -19 -49 29 -59 16 -15 -20 l34 -29 -28 -51 c-30 -54 -23
-80 9 -28 l19 32 3 -39 c2 -21 2 -39 0 -41 -2 -1 -60 -5 -129 -7 l-126 -4 23
68 c29 85 50 114 94 129 57 19 72 37 65 81 -6 33 -1 49 36 116 75 137 89 154
118 147 14 -4 37 -16 49 -28z m316 -24 c4 -10 13 -13 24 -8 14 5 15 4 4 -7
-10 -10 -18 -7 -40 15 -16 17 -20 25 -10 22 9 -4 19 -13 22 -22z m-124 -13 c0
-5 -5 -10 -11 -10 -5 0 -7 5 -4 10 3 6 8 10 11 10 2 0 4 -4 4 -10z m-90 -13
c0 -2 -15 -16 -32 -33 l-33 -29 29 33 c28 30 36 37 36 29z m60 -9 c0 -6 -3 -9
-6 -5 -4 3 -23 -5 -43 -20 l-36 -25 35 30 c38 34 50 39 50 20z m74 -10 c-6
-10 -5 -10 8 0 19 15 116 12 130 -5 6 -7 7 -24 4 -38 -4 -14 -2 -25 4 -25 5 0
10 9 10 19 0 11 5 23 10 26 6 3 10 0 10 -7 0 -23 -37 -112 -49 -116 -6 -2 -5
8 4 25 17 31 19 43 7 43 -4 0 -13 -14 -21 -31 -16 -36 -18 -36 -146 1 -44 12
-86 24 -94 26 -21 6 11 49 39 50 12 1 34 11 48 22 31 24 47 28 36 10z m-35 -2
c-2 -2 -15 -9 -29 -15 -24 -11 -24 -11 -6 3 16 13 49 24 35 12z m-105 -145 c3
-4 -6 -6 -19 -3 -14 2 -25 6 -25 8 0 8 39 4 44 -5z m-78 -20 c-11 -12 -24 -17
-34 -13 -14 6 -13 7 6 10 12 2 22 8 22 13 0 5 5 9 12 9 6 0 4 -8 -6 -19z m184
-17 c0 -2 -11 -2 -25 2 -32 8 -33 -9 -1 -25 17 -10 29 -10 42 -2 11 6 14 11 6
11 -7 0 -10 5 -7 10 11 18 24 10 20 -13 -4 -17 3 -27 25 -41 17 -9 28 -22 25
-27 -4 -5 -4 -9 -1 -9 3 0 10 9 16 21 8 15 8 24 0 34 -6 7 -7 16 -2 19 4 3 14
-11 21 -30 7 -18 16 -34 21 -34 5 0 8 -9 7 -20 -1 -11 -5 -20 -10 -20 -5 0 -7
7 -4 15 4 8 2 17 -3 20 -6 4 -10 1 -10 -5 0 -6 -6 -8 -12 -4 -7 4 -10 4 -6 -1
4 -4 2 -15 -5 -24 -11 -14 -10 -14 6 -2 18 14 24 2 7 -15 -7 -7 -6 -11 4 -11
8 0 13 4 10 8 -2 4 6 9 18 11 15 2 22 9 22 21 -1 10 5 17 17 17 11 0 19 5 19
10 0 6 8 10 18 10 12 0 4 -13 -29 -43 -53 -49 -100 -104 -79 -92 8 5 27 10 42
12 26 3 28 1 18 -18 -6 -11 -10 -25 -8 -31 2 -6 11 8 20 31 9 23 12 39 7 36
-5 -4 -9 0 -9 7 0 9 -3 9 -10 -2 -8 -13 -10 -13 -10 1 0 17 26 33 33 21 2 -4
2 -1 1 5 -2 7 9 26 23 44 22 25 24 32 12 40 -8 5 -18 9 -23 9 -5 0 -7 2 -5 5
3 2 25 -2 49 -10 25 -7 36 -14 25 -14 -23 -1 -10 -16 24 -26 19 -6 23 -4 18 8
-4 11 0 13 14 10 11 -3 18 -11 15 -19 -6 -16 51 -38 60 -23 10 18 68 -2 101
-34 22 -22 28 -34 20 -39 -8 -5 -6 -8 6 -8 10 0 46 -26 80 -57 49 -45 53 -48
18 -11 -24 25 -42 50 -41 54 2 5 -7 14 -18 20 -13 6 -18 15 -13 22 5 9 13 7
30 -7 31 -27 62 -36 71 -21 5 9 13 6 26 -8 21 -23 82 -43 70 -23 -8 13 10 13
39 1 l20 -9 -20 -1 c-20 -1 -20 -1 -1 -15 11 -8 29 -15 40 -15 21 1 21 1 2 15
-11 8 -18 15 -15 15 15 0 115 -33 123 -41 6 -5 -4 -5 -22 0 -40 12 -42 -3 -2
-17 24 -9 31 -8 38 5 8 13 15 14 48 3 21 -7 43 -16 48 -21 5 -4 17 -4 28 2 22
12 24 -3 2 -22 -14 -11 -13 -14 8 -26 18 -11 19 -13 3 -8 -36 12 -85 15 -85 6
0 -5 6 -11 13 -14 8 -3 2 -16 -18 -38 -25 -29 -24 -28 13 6 33 30 45 36 54 27
15 -15 48 -16 48 -2 0 6 10 9 23 9 16 -1 18 -2 5 -6 -27 -7 -22 -22 9 -29 17
-5 28 -3 31 4 5 15 32 15 52 2 11 -8 8 -9 -12 -4 -35 8 -38 -13 -3 -22 16 -4
30 0 40 10 22 21 28 20 20 -4 -6 -20 7 -31 43 -34 10 -1 37 -11 62 -21 25 -11
48 -19 52 -17 4 1 5 -5 2 -13 -5 -13 -8 -12 -21 1 -9 8 -17 13 -19 11 -2 -2
19 -27 46 -56 42 -45 61 -47 27 -3 -5 7 -7 16 -3 20 4 4 13 -1 20 -11 15 -19
36 -23 36 -6 0 5 5 7 12 3 7 -5 5 -11 -8 -21 -19 -14 -19 -15 1 -11 12 2 20
11 20 23 0 16 -7 20 -30 20 -25 0 -30 4 -33 28 -3 28 -43 54 -63 41 -5 -3 -9
0 -9 5 0 15 14 14 55 -3 18 -8 37 -11 42 -8 4 4 3 1 -4 -7 -17 -19 -5 -41 22
-41 13 0 27 -4 30 -10 3 -5 14 -9 23 -9 15 1 15 2 -1 6 -9 2 -14 9 -11 14 4 6
12 5 22 -4 10 -8 25 -17 35 -18 26 -5 73 -145 56 -165 -9 -11 -8 -14 4 -14 9
0 18 -12 22 -30 6 -30 7 -41 3 -39 -2 1 -23 -8 -47 -20 -31 -16 -46 -20 -54
-12 -15 15 21 42 48 36 11 -2 27 0 35 5 16 10 8 13 -28 10 -13 -1 -30 4 -38
11 -21 17 -32 -1 -28 -47 2 -31 0 -34 -18 -28 -13 4 -18 2 -14 -4 6 -10 -26
-23 -94 -38 -45 -10 -40 -9 -75 -23 -56 -24 -146 -18 -130 9 3 5 -4 11 -15 15
-11 3 -20 11 -20 16 0 5 -8 9 -17 9 -12 0 -4 -13 27 -45 31 -32 39 -45 27 -45
-9 0 -22 9 -29 20 -7 11 -16 20 -21 20 -4 0 -5 -4 -2 -10 3 -5 0 -10 -7 -11
-7 0 -30 -2 -51 -4 l-39 -4 27 21 c14 11 24 22 21 25 -7 7 -56 -39 -50 -49 3
-4 -3 -11 -13 -15 -14 -6 -10 -9 17 -13 30 -4 24 -7 -47 -20 -45 -9 -79 -12
-77 -8 10 15 -30 8 -48 -8 -15 -14 -20 -15 -35 -3 -11 9 -14 10 -9 2 5 -10 -3
-13 -31 -13 -28 0 -34 3 -23 10 8 5 11 10 6 10 -5 0 -18 -7 -28 -17 -22 -20
-36 -10 -17 13 12 14 11 16 -6 12 -11 -2 -19 -11 -17 -19 3 -22 -26 -19 -31 3
-3 10 -1 18 4 18 5 0 0 9 -11 20 -27 27 -43 26 -34 -2 6 -20 5 -21 -9 -10 -9
8 -21 11 -26 7 -6 -3 -32 10 -57 29 -34 26 -42 36 -28 36 16 1 14 5 -11 25
-34 28 -27 33 10 9 13 -9 30 -14 37 -11 8 2 0 12 -19 24 -31 19 -32 20 -15 39
9 10 -4 -1 -31 -26 -45 -42 -48 -43 -65 -27 -15 16 -15 17 -1 12 30 -11 29 11
-2 29 -33 19 -57 13 -38 -10 22 -26 -363 159 -521 251 -100 58 -114 73 -29 29
28 -14 58 -23 67 -19 14 5 15 7 2 16 -23 16 -1 7 63 -25 31 -16 60 -26 65 -21
4 4 1 10 -5 12 -7 3 -13 12 -13 21 0 15 -2 15 -11 2 -8 -12 -9 -11 -5 5 12 51
20 71 30 77 7 5 4 8 -8 8 -16 0 -16 4 8 35 15 19 24 39 21 45 -3 5 -2 18 4 27
6 13 5 24 -3 35 -12 16 -10 78 2 78 2 0 11 -8 18 -17 7 -10 14 -13 14 -6 0 6
-4 15 -10 18 -5 3 -10 17 -10 31 0 15 -6 24 -15 24 -9 0 -15 -9 -15 -24 0 -12
-5 -38 -11 -56 -9 -25 -9 -34 0 -40 9 -5 8 -9 -4 -14 -11 -4 -15 -15 -13 -33
3 -26 26 -46 25 -21 -1 31 4 48 13 48 7 0 7 -6 0 -19 -5 -11 -7 -27 -3 -37 5
-14 2 -16 -20 -10 -25 6 -26 4 -32 -41 -3 -27 -8 -62 -11 -80 l-5 -32 -50 29
c-27 17 -53 30 -56 30 -3 0 -16 11 -28 25 -18 19 -24 21 -29 10 -3 -8 -13 -15
-22 -15 -13 0 -14 3 -5 14 9 11 9 15 -1 19 -8 3 -5 6 6 6 11 1 16 4 13 8 -4 4
5 20 20 37 21 22 16 20 -22 -11 -27 -22 -58 -50 -69 -62 -18 -20 -19 -20 -45
-2 -14 10 -34 21 -43 24 -12 4 -15 12 -11 23 5 13 3 16 -10 11 -9 -3 -19 -2
-22 3 -4 6 7 10 24 10 30 0 66 -34 55 -52 -3 -5 7 -6 23 -2 37 9 44 13 41 27
-5 28 16 59 53 77 34 18 39 25 39 54 0 51 -29 71 -102 70 -59 -1 -59 -1 -53
25 8 31 13 37 22 27 4 -4 1 -16 -6 -28 -10 -16 -10 -19 0 -16 15 5 31 57 24
76 -5 15 -25 16 -25 1 0 -5 5 -7 10 -4 6 3 10 1 10 -4 0 -15 -19 -14 -35 3
-12 12 -12 15 4 19 12 3 21 18 25 42 7 35 8 36 26 20 20 -18 20 -16 11 48 0 5
-5 5 -11 2 -6 -3 -7 1 -4 10 10 24 45 34 94 28 30 -4 41 -3 36 5 -5 8 2 8 24
1 16 -6 30 -13 30 -15z m-215 -51 c0 -30 -20 -53 -45 -52 -8 0 -5 4 8 9 23 10
31 49 10 51 -7 0 -4 4 7 9 11 5 20 9 20 9 1 1 1 -11 0 -26z m400 8 c3 -5 1
-12 -5 -16 -5 -3 -10 1 -10 9 0 18 6 21 15 7z m-355 -11 c0 -5 -2 -10 -4 -10
-3 0 -8 5 -11 10 -3 6 -1 10 4 10 6 0 11 -4 11 -10z m1399 -301 c24 -11 56
-21 71 -24 33 -6 100 -34 82 -35 -7 0 -22 4 -32 10 -17 9 -35 13 -120 25 -13
2 -26 8 -28 14 -2 5 -10 7 -19 4 -11 -4 -14 -2 -9 5 4 7 3 12 -3 12 -5 0 -11
-4 -13 -10 -1 -5 -14 0 -28 10 l-25 19 40 -6 c22 -3 60 -14 84 -24z m-1406
-36 c-7 -2 -19 -2 -25 0 -7 3 -2 5 12 5 14 0 19 -2 13 -5z m-45 -28 c-3 -3 -9
2 -12 12 -6 14 -5 15 5 6 7 -7 10 -15 7 -18z m-118 -48 c0 -29 7 -79 15 -110
8 -32 15 -60 15 -63 0 -6 -58 39 -147 113 -34 28 -72 58 -84 67 -13 8 -19 19
-15 23 7 8 95 18 179 21 l37 2 0 -53z m1717 30 c3 -6 1 -7 -5 -3 -7 4 -12 2
-12 -5 0 -8 -4 -8 -12 -1 -7 5 -22 12 -33 15 -11 2 -3 4 18 4 21 0 41 -5 44
-10z m-1610 -77 c6 0 8 -12 6 -27 -4 -24 -2 -25 7 -11 10 16 15 16 63 -11 120
-66 137 -77 137 -89 0 -7 8 -12 18 -10 14 3 17 -6 18 -52 1 -30 4 -62 7 -70 3
-8 5 -23 4 -34 0 -18 -1 -18 -14 -1 -7 10 -15 16 -18 14 -8 -8 7 -49 16 -43 5
3 9 -3 9 -12 0 -10 -3 -14 -7 -11 -9 9 -53 -33 -53 -50 0 -8 -5 -11 -11 -7 -7
4 -7 -1 1 -16 6 -12 9 -24 6 -28 -3 -3 -6 0 -6 6 0 17 -35 15 -50 -3 -17 -21
-7 -29 19 -15 30 16 26 5 -6 -16 -26 -17 -203 -58 -212 -49 -2 2 4 11 13 20 9
9 16 17 16 18 0 1 -18 1 -41 1 -38 -1 -64 -18 -53 -35 5 -9 -27 -21 -35 -14
-3 3 1 10 9 15 8 6 12 10 8 10 -3 0 -13 3 -22 6 -12 4 -16 0 -16 -15 0 -12 -2
-21 -4 -21 -2 0 -12 -3 -22 -7 -14 -5 -16 -3 -11 12 6 15 3 17 -22 12 -19 -4
-31 -2 -35 6 -2 7 -4 1 -3 -12 1 -18 -7 -31 -32 -48 -35 -23 -57 -30 -47 -14
3 5 0 11 -8 14 -8 3 -17 -1 -20 -9 -3 -7 -15 -13 -27 -11 -19 2 -25 -6 -36
-42 -15 -53 -52 -98 -65 -79 -6 9 -20 1 -51 -32 -23 -25 -46 -43 -52 -42 -5 2
-7 0 -2 -4 11 -11 -23 -44 -45 -44 -25 0 -58 -18 -58 -31 0 -6 7 -3 16 5 20
21 30 21 13 0 -10 -12 -10 -17 0 -23 10 -6 9 -10 -3 -14 -9 -4 -16 -2 -16 3 0
13 -47 13 -55 0 -4 -6 -12 -7 -18 -3 -7 3 -3 -3 7 -15 21 -24 13 -30 -10 -7
-13 12 -17 12 -34 -2 -10 -9 -16 -21 -13 -26 3 -6 1 -7 -6 -3 -9 6 -9 11 0 22
15 18 -5 19 -23 1 -7 -8 -21 -13 -31 -11 -14 2 -16 -2 -11 -19 6 -22 6 -22
-10 -2 -8 11 -16 16 -16 10 0 -5 -5 -3 -10 5 -5 8 -7 35 -4 60 8 65 12 74 27
62 16 -14 48 -17 73 -9 28 10 48 59 40 99 -4 22 -1 37 11 50 16 18 16 18 0 12
-19 -7 -24 11 -6 22 8 4 7 9 -2 15 -11 6 -5 17 23 46 21 20 40 34 44 31 3 -4
-6 -19 -21 -34 -17 -17 -21 -24 -10 -20 13 4 16 2 11 -9 -7 -20 13 -19 35 1
15 14 21 14 53 0 48 -20 94 -18 107 6 6 12 6 18 -1 18 -5 0 -10 20 -10 45 0
27 -5 45 -12 45 -6 0 -4 7 5 18 23 25 21 35 -4 27 -18 -6 -19 -5 -10 13 15 28
14 35 -5 28 -14 -5 -15 -4 -4 9 25 30 90 77 84 61 -4 -11 -1 -16 11 -16 12 0
6 -10 -21 -34 -49 -43 -40 -57 11 -16 l37 30 29 -21 c16 -11 27 -25 24 -30 -4
-5 1 -9 10 -9 8 0 18 -7 21 -15 8 -20 58 -19 78 1 9 9 16 32 16 56 0 27 6 45
18 54 16 12 15 13 -5 14 -13 0 -23 4 -23 8 0 15 45 30 73 25 16 -3 27 -1 27 6
0 6 -5 11 -12 11 -24 0 3 13 42 20 22 4 43 3 46 -1 3 -5 0 -9 -6 -9 -6 0 -8
-5 -4 -11 3 -6 17 -8 30 -5 14 4 24 2 24 -4 0 -5 7 -10 16 -10 8 0 13 -4 10
-9 -7 -10 22 -25 43 -22 8 1 10 -2 5 -10 -4 -7 -3 -10 3 -6 6 4 24 0 39 -8 38
-20 79 -19 99 2 13 13 16 27 11 62 -5 38 -15 54 -53 91 -29 29 -48 40 -51 32
-3 -10 -7 -10 -18 -1 -8 6 -11 15 -8 20 10 17 -7 31 -22 18 -11 -9 -15 -8 -18
2 -27 80 -35 113 -41 164 l-7 60 39 -37 c21 -21 44 -38 50 -38z m1852 9 c48
-17 32 -20 -19 -4 -25 7 -38 14 -29 14 9 1 30 -4 48 -10z m-1759 -11 c0 -15
-18 -17 -36 -3 -18 14 -17 14 9 13 15 -1 27 -6 27 -10z m1614 -3 c-4 -8 -13
-15 -21 -15 -13 0 -13 3 -3 15 7 8 16 15 21 15 5 0 6 -7 3 -15z m-2176 -16 c2
-11 -8 -19 -30 -25 -23 -7 -38 -20 -51 -46 -22 -44 -36 -145 -19 -134 10 6 42
-51 42 -74 0 -5 -27 3 -60 17 -52 23 -60 30 -59 52 0 43 26 172 35 181 14 14
108 49 124 47 8 -1 16 -9 18 -18z m642 1 c0 -5 -2 -10 -4 -10 -3 0 -8 5 -11
10 -3 6 -1 10 4 10 6 0 11 -4 11 -10z m-84 -222 c16 -18 20 -26 9 -18 -37 27
-59 50 -49 50 6 0 23 -14 40 -32z m-347 -52 c-11 -9 -69 -14 -69 -6 0 6 17 10
37 10 20 0 34 -2 32 -4z m2279 -23 c6 -10 12 -31 16 -48 6 -27 3 -31 -31 -46
-21 -10 -92 -42 -158 -72 -157 -73 -162 -75 -357 -151 -255 -101 -315 -122
-558 -196 -472 -143 -569 -165 -742 -165 -112 0 -130 2 -155 21 -49 36 -64 82
-70 214 -3 66 -8 120 -11 120 -3 0 -30 -12 -61 -27 -82 -41 -219 -180 -259
-263 -62 -131 -62 -208 1 -276 89 -96 365 -118 662 -53 168 37 533 160 719
243 32 14 60 26 62 26 1 0 -4 -12 -12 -27 -7 -16 -14 -35 -14 -44 0 -8 -4 -19
-9 -25 -4 -5 -22 -48 -39 -96 -17 -48 -36 -95 -41 -105 -11 -21 -82 -217 -105
-289 l-17 -51 -177 -18 c-97 -9 -278 -27 -402 -40 -124 -13 -319 -33 -435 -45
-115 -11 -250 -25 -300 -30 l-90 -9 -48 52 c-132 142 -272 416 -321 626 -16
69 -25 61 92 85 108 22 184 67 272 160 162 172 206 213 240 223 74 23 179 43
265 51 125 13 236 54 294 109 24 24 51 43 58 43 7 0 13 6 13 13 1 7 6 5 14 -5
7 -10 21 -18 31 -18 22 0 63 -32 58 -46 -2 -6 8 -16 23 -23 32 -14 44 -7 14 9
-12 6 -19 14 -16 17 3 4 1 12 -5 19 -8 10 -5 11 20 1 17 -6 28 -13 26 -16 -8
-8 17 -31 34 -31 13 1 13 3 -4 17 -23 18 -32 20 125 -22 52 -14 138 -30 190
-36 52 -6 97 -15 98 -20 5 -13 62 -11 62 2 0 8 19 9 60 4 42 -5 65 -3 75 5 8
7 26 10 39 6 13 -3 41 0 62 8 22 7 53 11 70 9 19 -3 42 1 55 10 20 12 36 13
86 5 45 -7 68 -6 80 2 15 9 12 10 -18 7 -26 -4 -36 -1 -36 9 0 10 12 13 39 12
24 -1 38 -6 38 -15 0 -16 -1 -16 39 -2 37 13 42 32 6 23 -18 -4 -25 -2 -25 8
0 10 14 13 49 13 27 0 47 -3 45 -7 -6 -10 -1 -10 21 -2 10 4 12 9 6 13 -20 13
7 33 46 35 22 1 48 10 57 19 19 19 42 22 51 7 3 -5 1 -10 -6 -10 -7 0 -9 -3
-6 -7 4 -3 16 2 27 12 13 12 17 21 10 25 -6 4 7 14 30 23 22 8 38 11 35 6 -9
-13 9 -11 24 4 11 10 13 9 7 -6 -4 -13 -2 -17 6 -15 7 3 13 11 13 19 0 9 9 13
23 11 12 -2 22 1 22 7 0 6 -7 8 -15 5 -8 -4 -15 -1 -15 5 0 18 38 13 48 -6z
m-1213 -63 c3 -6 -1 -7 -9 -4 -18 7 -21 14 -7 14 6 0 13 -4 16 -10z m665 -44
c0 -17 -62 -34 -68 -18 -1 5 -13 8 -25 6 -21 -4 -21 -4 -2 5 27 13 48 13 40 1
-3 -5 1 -10 10 -10 9 0 14 4 10 9 -3 5 3 12 12 14 10 3 19 5 21 6 1 0 2 -5 2
-13z m-2429 -215 c-13 -23 -26 -27 -36 -10 -4 5 1 19 11 30 22 25 41 10 25
-20z m3029 4 c-7 -8 -17 -12 -22 -9 -5 3 -1 12 9 19 22 17 30 11 13 -10z m-45
-17 c6 -1 9 -6 8 -10 -2 -5 2 -8 8 -8 5 0 7 -4 4 -10 -3 -5 1 -10 10 -10 9 0
14 4 11 9 -3 5 1 11 9 15 18 7 20 -15 3 -33 -9 -10 -9 -12 -1 -7 7 4 12 0 11
-11 -1 -23 12 -159 21 -230 7 -50 7 -52 -9 -35 -10 9 -13 19 -9 20 18 7 8 22
-13 19 -18 -2 -23 3 -23 23 0 14 -4 25 -10 26 -5 0 -22 6 -36 12 -24 10 -26
15 -24 60 2 46 1 49 -19 44 -18 -5 -18 -7 -3 -10 9 -2 17 -10 17 -18 0 -8 -5
-12 -10 -9 -6 4 -10 3 -9 -2 4 -21 -2 -24 -18 -12 -36 28 8 -23 101 -118 49
-51 86 -96 82 -100 -4 -4 -14 1 -22 11 -12 17 -14 18 -14 3 0 -9 -4 -17 -10
-17 -5 0 -10 -5 -10 -12 0 -9 3 -9 12 0 16 16 33 16 20 0 -14 -19 -8 -63 11
-66 10 -2 14 -9 10 -19 -4 -11 -2 -14 5 -9 7 4 12 3 12 -3 0 -19 -19 -21 -30
-4 -10 17 -11 16 -8 -2 2 -12 12 -21 26 -23 12 -2 22 -7 22 -11 0 -4 -74 -80
-164 -170 -103 -102 -169 -160 -176 -156 -9 6 -9 10 1 16 11 7 10 9 -4 9 -11
0 -15 4 -11 12 5 8 2 9 -12 4 -10 -4 -32 -10 -49 -13 -16 -3 -34 -11 -40 -18
-10 -12 -92 -22 -255 -31 -92 -5 -408 -46 -465 -60 -25 -6 -26 -5 -16 14 14
26 14 42 0 42 -5 0 -17 -17 -26 -37 -14 -35 -16 -36 -29 -18 -14 18 -14 18
-29 -1 -13 -17 -14 -16 -3 16 6 19 15 40 20 45 6 6 7 4 3 -6 -4 -10 -2 -20 3
-23 5 -3 17 16 26 43 20 61 20 67 2 52 -11 -9 -9 2 6 41 11 29 22 55 25 58 4
3 3 -3 0 -13 -4 -11 -10 -31 -13 -45 -10 -42 12 -15 31 38 30 81 30 84 11 77
-9 -4 -15 -3 -13 1 10 16 40 88 41 97 1 10 34 96 64 170 35 83 79 116 223 170
l93 35 -82 -80 c-45 -44 -82 -83 -82 -86 0 -10 37 21 65 54 18 21 31 29 35 22
8 -14 60 4 60 21 0 6 -7 8 -15 5 -51 -21 -51 -21 -31 2 11 12 37 27 58 33 27
7 38 15 35 24 -3 7 3 15 13 18 11 3 20 1 22 -5 2 -6 21 -5 51 2 46 12 59 24
35 33 -7 2 13 11 44 21 32 9 65 19 74 23 12 4 15 3 10 -5 -4 -8 0 -12 11 -12
26 0 47 16 39 29 -4 6 -2 11 3 11 6 0 11 -4 11 -10 0 -21 31 -9 40 16 9 23 11
24 26 10 22 -23 36 -20 32 7 -3 19 1 22 25 19 19 -3 27 1 27 12 0 18 16 22 22
6 2 -7 15 -6 37 3 19 8 28 16 21 19 -8 2 -10 9 -6 16 5 8 13 9 24 3 9 -5 22
-11 27 -13z m-3032 -54 c10 -10 -12 -44 -28 -44 -20 0 -18 -10 6 -40 l20 -25
-6 34 c-5 23 -4 31 4 27 6 -4 11 -21 11 -39 0 -24 3 -28 12 -19 9 9 9 22 1 52
-6 25 -7 43 -1 46 16 10 22 -5 19 -50 -1 -25 2 -47 7 -50 5 -3 3 -25 -6 -52
-13 -39 -13 -62 -3 -155 6 -59 24 -151 40 -204 l29 -96 -23 21 c-13 12 -21 28
-18 36 3 8 2 21 -1 29 -4 12 -10 13 -25 6 -14 -8 -20 -7 -24 4 -4 8 2 16 14
20 18 6 27 44 13 58 -12 12 -41 -16 -36 -35 3 -14 0 -17 -13 -12 -13 5 -14 9
-3 15 10 7 10 9 -1 9 -11 0 -10 3 3 13 17 12 16 14 -13 14 -25 0 -28 -3 -19
-14 6 -7 9 -15 6 -18 -2 -2 -12 4 -21 15 -9 11 -12 20 -7 20 5 0 7 6 4 14 -3
8 2 16 13 19 15 4 14 5 -4 6 -13 1 -23 -6 -26 -16 -4 -17 -5 -17 -6 0 0 10 7
20 17 23 9 3 25 10 36 16 17 9 18 6 14 -25 -3 -28 -1 -34 12 -29 21 8 30 23
30 52 0 18 -3 21 -12 12 -9 -9 -15 -9 -25 0 -11 9 -26 7 -63 -6 -27 -10 -54
-15 -60 -11 -5 3 -10 2 -10 -2 0 -5 52 -60 115 -122 63 -62 115 -118 115 -123
0 -5 -7 -2 -16 7 -21 20 -27 14 -16 -15 6 -15 18 -24 36 -26 23 -2 25 0 15 12
-6 8 -7 14 -3 14 10 0 37 -38 40 -56 1 -6 5 -21 8 -32 4 -12 1 -26 -9 -36 -10
-10 -14 -24 -10 -36 7 -23 25 -27 25 -6 0 9 7 12 19 9 11 -3 17 -11 15 -18 -7
-18 14 -55 31 -55 9 0 12 -6 9 -15 -5 -12 -9 -13 -20 -4 -23 19 -27 3 -8 -26
11 -17 22 -24 33 -20 29 12 34 10 36 -12 1 -18 -1 -20 -12 -11 -20 16 -25 5
-7 -20 14 -21 42 -33 30 -13 -4 5 3 7 14 4 11 -3 20 -9 20 -14 0 -5 -7 -6 -15
-3 -19 8 -20 -10 -1 -25 11 -9 15 -9 19 1 3 8 10 0 16 -17 10 -23 14 -26 21
-15 5 8 12 11 17 7 9 -10 -18 -28 -34 -22 -6 2 -113 -1 -237 -7 l-226 -10 -21
24 -21 23 5 -22 c6 -28 -1 -29 -20 -5 -14 16 -14 16 -9 0 13 -42 -25 -12 -94
75 -41 50 -98 117 -128 148 -44 48 -50 58 -38 68 11 9 20 10 35 1 23 -12 28
-1 9 19 -11 11 -10 13 4 8 11 -4 15 -2 12 7 -6 14 19 15 49 2 21 -10 23 -38 2
-30 -28 11 -15 -4 17 -20 40 -20 38 -21 37 12 0 24 -1 25 -9 7 -7 -18 -9 -18
-21 10 -7 17 -11 34 -10 38 1 5 -3 6 -8 3 -5 -3 -16 -3 -25 0 -13 5 -8 14 25
46 28 28 46 37 57 33 34 -14 61 -13 67 3 3 8 1 20 -5 26 -8 8 -9 6 -4 -7 5
-13 2 -16 -12 -10 -12 4 -15 3 -10 -5 10 -16 -6 -15 -28 1 -16 11 -14 15 18
43 23 21 39 28 48 23 19 -13 25 -11 48 14 27 27 47 62 31 53 -6 -4 -11 -1 -11
8 0 11 8 14 30 11 35 -4 36 -2 13 16 -14 12 -16 12 -9 0 6 -9 5 -12 -5 -9 -8
3 -13 14 -11 24 2 10 -73 -57 -166 -149 -147 -147 -170 -166 -181 -153 -8 9
-19 16 -25 16 -6 -1 -1 -9 12 -20 12 -10 18 -21 13 -24 -5 -4 -48 23 -96 59
-47 36 -94 65 -105 65 -26 0 -87 55 -122 109 -37 58 -36 74 2 31 33 -39 41
-33 10 7 -11 14 -20 32 -20 39 0 17 -17 18 -23 2 -3 -7 -6 -8 -6 -2 -1 5 15
28 35 49 l35 39 31 -49 c26 -43 62 -90 45 -60 -3 6 12 10 38 10 24 0 38 -3 32
-7 -8 -5 -8 -8 -1 -8 17 0 54 57 54 85 0 15 -5 35 -10 45 -9 17 -5 20 27 29
53 15 56 14 83 -14 17 -18 34 -25 60 -25 52 0 68 22 72 97 3 60 9 75 23 53 4
-6 12 -4 22 6 13 12 13 18 4 24 -9 5 -10 10 -2 14 6 4 11 3 11 -3 0 -6 6 -8
13 -5 8 3 18 -6 25 -21 27 -58 110 -12 122 68 4 28 3 47 -3 47 -5 0 -4 7 3 15
7 9 8 15 2 15 -7 0 -6 8 1 24 7 14 14 20 18 15 3 -5 16 0 29 11 23 20 42 25
53 14z m3049 -199 c2 3 5 -2 5 -10 0 -19 0 -19 -23 7 -12 14 -13 18 -3 10 9
-6 18 -10 21 -7z m-3588 -100 c-5 -12 -1 -13 26 -4 17 6 33 10 35 7 2 -2 -16
-11 -41 -20 -41 -14 -44 -14 -44 2 0 18 8 30 21 30 5 0 6 -7 3 -15z m-204 -39
c0 -18 -7 -26 -27 -31 -102 -25 -88 -152 28 -259 105 -97 95 -176 -22 -176
-32 0 -62 12 -128 50 -48 28 -103 55 -122 61 -19 6 -169 14 -334 19 -165 5
-331 14 -370 20 -126 19 -313 86 -293 105 14 14 160 35 318 45 337 22 702 88
850 154 92 41 100 42 100 12z m3876 -62 c-9 -23 -21 -16 -23 13 -1 19 1 22 8
12 7 -11 9 -10 10 6 1 18 2 18 6 2 3 -10 2 -25 -1 -33z m-3290 -142 c-19 -20
-29 -23 -37 -15 -15 15 -1 36 18 29 8 -3 11 -1 8 5 -4 5 -1 17 6 25 11 14 14
13 22 -2 7 -12 3 -23 -17 -42z m3313 1 c-1 -10 1 -38 5 -63 8 -47 -8 -176 -24
-196 -6 -6 -7 -14 -3 -17 3 -4 1 -7 -5 -7 -7 0 -13 12 -13 28 -2 23 -2 24 -6
5 -4 -21 -10 -23 -64 -23 -35 0 -59 4 -59 11 0 6 -9 8 -20 4 -24 -8 -25 -2 -3
32 13 19 14 28 5 31 -17 5 -15 19 3 19 8 0 13 -2 10 -5 -8 -8 15 -42 28 -42 9
0 8 3 -1 9 -7 4 -14 14 -15 22 -2 8 -6 19 -9 25 -8 12 58 68 70 60 5 -3 9 1 9
9 0 8 -5 12 -11 8 -6 -3 4 9 23 27 23 23 35 29 40 21 6 -9 11 -8 21 4 7 9 9
15 4 14 -23 -4 -26 3 -9 21 22 25 27 25 24 3z m-5158 -50 c13 -16 12 -17 -3
-4 -10 7 -18 15 -18 17 0 8 8 3 21 -13z m-58 -16 c8 -12 32 -31 53 -41 22 -11
51 -25 66 -33 34 -17 49 -17 42 1 -3 8 -19 18 -35 21 -36 8 -45 20 -14 20 13
0 21 -2 19 -4 -2 -3 10 -11 27 -18 18 -7 28 -17 23 -24 -8 -13 13 -29 40 -29
12 0 16 5 12 15 -6 18 21 20 44 4 12 -8 10 -9 -8 -4 -16 5 -22 3 -20 -7 3 -15
31 -26 68 -27 24 0 24 0 6 14 -11 8 -15 15 -9 15 7 0 14 -4 18 -9 3 -6 17 -6
35 -1 18 5 30 5 30 -1 0 -5 -11 -9 -25 -9 -14 0 -25 -4 -25 -10 0 -6 36 -10
87 -10 l87 0 -39 -42 -40 -42 47 42 c37 33 55 42 83 42 33 0 36 2 30 21 -6 19
-5 20 8 8 8 -8 13 -17 11 -20 -4 -7 30 -19 54 -19 6 0 12 8 12 18 1 16 1 16
11 0 12 -21 69 -25 70 -5 0 10 2 10 6 0 7 -19 73 -17 73 2 0 9 9 15 22 15 21
0 21 0 2 -15 -18 -13 -17 -14 19 -15 35 0 51 14 25 22 -7 3 -6 7 5 11 9 3 17
2 17 -3 0 -5 9 -6 22 -1 15 5 40 0 83 -17 33 -13 62 -27 65 -31 3 -3 18 -15
34 -25 22 -14 31 -16 34 -7 3 8 9 4 16 -10 6 -12 19 -23 29 -25 18 -2 18 -2 1
17 -30 34 -5 20 40 -21 43 -40 76 -46 76 -13 0 8 -5 11 -10 8 -6 -3 -10 -4
-10 -1 0 14 20 14 34 0 9 -8 20 -12 26 -9 15 9 12 27 -2 19 -7 -4 -10 -4 -6 1
4 4 18 13 30 19 13 6 30 26 40 44 22 45 32 53 24 20 -8 -33 11 -39 22 -8 8 20
8 20 32 -5 13 -14 20 -28 17 -32 -4 -3 -7 -1 -7 5 0 7 -5 12 -10 12 -6 0 -5
-8 2 -20 11 -16 14 -17 21 -5 4 9 13 13 18 9 6 -4 3 -14 -8 -27 -16 -18 -16
-20 -1 -14 12 4 15 2 11 -9 -4 -10 0 -12 11 -8 11 4 15 13 11 23 -3 9 12 -2
34 -23 22 -22 39 -42 36 -44 -2 -3 7 -13 20 -24 14 -11 23 -24 20 -29 -10 -15
-28 -10 -22 6 4 8 2 17 -3 20 -6 4 -10 1 -10 -6 0 -21 -29 24 -30 46 0 17 -2
17 -10 5 -9 -13 -14 -7 -11 13 0 4 -6 7 -15 7 -10 0 6 -25 46 -70 34 -38 64
-70 65 -70 2 0 7 5 11 12 4 7 3 8 -4 4 -8 -5 -10 -1 -6 9 6 13 9 12 23 -7 9
-13 16 -27 16 -33 1 -5 6 -9 12 -8 7 2 22 -12 35 -30 15 -21 17 -27 5 -18 -11
9 -17 10 -17 2 0 -7 -40 -11 -127 -11 -117 0 -129 2 -152 23 l-26 22 19 -23
19 -22 -84 5 c-46 3 -174 10 -284 15 -258 13 -457 34 -675 70 -96 16 -176 27
-178 25 -2 -1 -20 14 -40 34 -35 35 -36 35 -7 2 22 -25 25 -32 11 -27 -10 3
-62 15 -115 26 -53 11 -141 33 -196 48 l-100 28 2 45 c2 40 66 189 81 189 4 0
24 -17 47 -37 l40 -38 -37 40 c-36 39 -37 42 -21 58 22 22 28 22 46 -6z m1427
-127 c0 -25 -7 -43 -22 -56 l-22 -19 17 25 c20 29 22 80 5 100 -11 12 -10 12
5 1 11 -9 17 -27 17 -51z m-875 21 c-17 -15 -28 -17 -70 -11 l-50 7 47 2 c26
0 50 6 53 11 3 6 14 10 23 10 14 0 14 -3 -3 -19z m-125 -5 c0 -3 -4 -8 -10
-11 -5 -3 -10 -1 -10 4 0 6 5 11 10 11 6 0 10 -2 10 -4z m4590 -35 c0 -5 -7
-11 -15 -15 -8 -3 -15 -12 -15 -20 0 -9 -11 -18 -25 -22 -34 -8 -39 -2 -13 15
15 9 18 9 13 0 -5 -8 -4 -10 4 -5 6 4 8 12 5 18 -4 6 1 17 11 25 22 15 35 17
35 4z m-160 -50 c0 -6 -9 -9 -20 -8 -11 1 -20 5 -20 9 0 4 9 8 20 8 11 0 20
-4 20 -9z m-58 -13 c-9 -9 -15 -9 -24 0 -9 9 -7 12 12 12 19 0 21 -3 12 -12z
m442 -58 c11 -12 15 -58 18 -222 l3 -206 -85 -11 c-99 -12 -178 -17 -500 -31
-129 -6 -264 -12 -300 -15 -165 -11 -852 -42 -1120 -50 -58 -2 -265 -8 -460
-14 -635 -19 -908 -16 -1240 14 -132 12 -366 30 -542 40 -230 14 -413 55 -756
166 -100 33 -240 73 -310 90 -164 39 -212 61 -212 99 0 34 31 110 53 128 13
11 31 8 109 -18 212 -71 750 -159 1093 -180 317 -18 407 -21 850 -21 423 0
600 4 704 17 74 9 290 27 466 39 50 3 189 17 310 30 121 14 256 27 300 30 44
3 103 10 130 15 28 5 97 14 155 20 58 6 184 22 280 35 282 39 628 63 872 61
134 -1 170 -4 182 -16z"/>
<path d="M3575 3263 c6 -6 51 -45 100 -87 l90 -78 -78 76 c-44 42 -89 81 -100
87 -12 6 -17 7 -12 2z"/>
<path d="M3459 2808 c-7 -24 -4 -34 11 -34 10 0 16 4 14 8 -6 10 10 11 19 1 4
-3 18 -7 32 -9 20 -2 22 0 12 11 -7 7 -17 9 -22 5 -6 -5 -19 -2 -29 6 -18 13
-35 18 -37 12z"/>
<path d="M3566 2761 c-4 -7 -5 -15 -2 -18 9 -9 19 4 14 18 -4 11 -6 11 -12 0z"/>
<path d="M3613 2758 c4 -11 2 -18 -5 -18 -6 0 -9 -3 -5 -6 3 -3 13 -2 22 3 15
9 15 11 -1 24 -16 12 -17 12 -11 -3z"/>
<path d="M3638 2723 c7 -3 16 -2 19 1 4 3 -2 6 -13 5 -11 0 -14 -3 -6 -6z"/>
<path d="M3600 2716 c0 -2 7 -7 16 -10 8 -3 12 -2 9 4 -6 10 -25 14 -25 6z"/>
<path d="M3407 2690 c-4 -17 -3 -19 8 -10 10 8 16 7 24 -7 6 -10 11 -13 11 -7
0 6 -8 19 -19 28 -17 16 -19 16 -24 -4z"/>
<path d="M3660 2700 c8 -5 20 -10 25 -10 6 0 3 5 -5 10 -8 5 -19 10 -25 10 -5
0 -3 -5 5 -10z"/>
<path d="M3840 2700 c0 -10 32 -30 49 -30 20 0 11 17 -14 28 -31 14 -35 15
-35 2z"/>
<path d="M3600 2690 c0 -4 -18 -10 -39 -14 -22 -3 -43 -11 -47 -17 -4 -8 1 -9
17 -3 13 5 53 8 89 8 58 -2 60 -1 20 5 -35 5 -40 8 -20 12 25 4 25 4 3 11 -13
3 -23 3 -23 -2z"/>
<path d="M3920 2670 c0 -12 33 -30 54 -30 27 0 18 18 -15 29 -39 13 -39 13
-39 1z"/>
<path d="M4033 2650 c-1 -14 7 -24 23 -31 31 -11 45 -4 37 19 -13 36 -58 44
-60 12z"/>
<path d="M3460 2651 c0 -5 7 -12 16 -15 24 -9 27 -7 10 9 -17 17 -26 19 -26 6z"/>
<path d="M3443 2623 c1 -23 21 -31 32 -13 3 6 0 10 -9 10 -8 0 -16 6 -19 13
-3 6 -4 2 -4 -10z"/>
<path d="M3410 2589 c0 -5 5 -7 10 -4 6 3 10 8 10 11 0 2 -4 4 -10 4 -5 0 -10
-5 -10 -11z"/>
<path d="M4234 2572 c9 -15 65 -32 71 -22 7 11 -2 16 -44 25 -22 5 -31 4 -27
-3z"/>
<path d="M3659 2553 c-13 -16 -12 -17 4 -4 16 13 21 21 13 21 -2 0 -10 -8 -17
-17z"/>
<path d="M4330 2540 c0 -10 32 -30 49 -30 20 0 11 17 -14 28 -31 14 -35 15
-35 2z"/>
<path d="M3619 2513 c-13 -16 -12 -17 4 -4 9 7 17 15 17 17 0 8 -8 3 -21 -13z"/>
<path d="M4426 2501 c-9 -14 38 -35 60 -27 21 8 9 22 -27 31 -16 4 -30 2 -33
-4z"/>
<path d="M4585 2498 c11 -7 26 -18 33 -25 16 -16 45 -17 40 -2 -2 6 -22 17
-43 25 -48 17 -57 17 -30 2z"/>
<path d="M3747 2493 c-4 -3 -7 -11 -7 -17 0 -6 5 -5 12 2 6 6 9 14 7 17 -3 3
-9 2 -12 -2z"/>
<path d="M4126 2468 c-9 -12 -16 -33 -16 -45 0 -13 -2 -23 -5 -23 -3 0 -39 18
-79 40 -40 22 -78 40 -84 40 -22 0 -12 -37 13 -54 14 -9 22 -22 19 -31 -3 -8
5 -25 19 -39 13 -13 27 -36 31 -49 3 -14 15 -29 26 -32 15 -5 19 -12 15 -25
-4 -13 1 -26 14 -37 12 -10 21 -22 21 -28 0 -12 42 -55 53 -55 4 0 23 -16 43
-35 19 -19 41 -35 49 -35 8 0 15 -3 15 -7 0 -15 79 -46 104 -41 14 3 23 2 21
-2 -3 -4 3 -14 12 -21 11 -10 54 -15 137 -17 67 -2 154 -4 193 -5 83 -2 93 9
39 43 -19 11 -37 26 -40 33 -3 9 -5 9 -5 -1 -1 -8 -12 -5 -35 10 l-34 22 29
34 c16 18 29 39 29 47 0 7 -22 26 -49 41 -43 23 -52 34 -71 84 -37 99 -120
160 -217 160 -34 0 -54 6 -72 23 l-26 22 24 -27 24 -28 -44 0 c-33 0 -54 8
-83 30 -47 36 -51 36 -70 8z m-116 -68 c0 -5 -2 -10 -4 -10 -3 0 -8 5 -11 10
-3 6 -1 10 4 10 6 0 11 -4 11 -10z m247 -76 c-3 -3 -12 -4 -19 -1 -8 3 -5 6 6
6 11 1 17 -2 13 -5z m28 -38 c-11 -8 -24 -12 -28 -9 -11 7 12 23 32 23 11 0 9
-4 -4 -14z m-135 -26 c0 -5 -2 -10 -4 -10 -3 0 -8 5 -11 10 -3 6 -1 10 4 10 6
0 11 -4 11 -10z m248 -70 c-15 -23 -35 -33 -43 -20 -3 5 7 16 22 24 36 19 35
20 21 -4z m-168 -68 c0 -12 -3 -12 -17 -1 -10 7 -20 14 -22 16 -2 1 6 1 18 0
11 -1 21 -8 21 -15z"/>
<path d="M3569 2463 c-13 -16 -12 -17 4 -4 9 7 17 15 17 17 0 8 -8 3 -21 -13z"/>
<path d="M4510 2471 c0 -6 12 -16 26 -21 33 -13 34 -13 34 5 0 8 -6 15 -14 15
-8 0 -21 3 -30 6 -9 3 -16 1 -16 -5z"/>
<path d="M3445 2400 c-3 -5 -3 -10 2 -10 4 0 1 -5 -7 -11 -10 -7 -11 -9 -2 -7
8 2 13 7 12 12 -1 5 4 13 12 17 9 6 9 9 1 9 -6 0 -15 -4 -18 -10z"/>
<path d="M3327 2367 c-3 -8 1 -14 8 -14 7 0 11 6 8 14 -3 7 -6 13 -8 13 -2 0
-5 -6 -8 -13z"/>
<path d="M3706 2285 c-9 -26 -7 -32 5 -12 6 10 9 21 6 23 -2 3 -7 -2 -11 -11z"/>
<path d="M5192 2253 c-7 -3 -17 -14 -24 -26 l-11 -22 23 20 c20 17 23 18 17 3
-4 -11 -2 -17 5 -15 6 1 16 -15 21 -35 8 -33 11 -36 24 -23 8 8 12 21 10 28
-4 9 -6 9 -6 0 -2 -23 -19 -14 -23 12 -5 26 6 35 15 13 4 -10 6 -10 6 0 1 8
-8 16 -20 19 -13 4 -17 8 -9 13 14 9 -8 19 -28 13z"/>
<path d="M3600 2212 c0 -5 11 -14 25 -20 26 -12 33 -4 13 16 -14 14 -38 16
-38 4z"/>
<path d="M3745 2181 c-3 -6 3 -15 14 -20 24 -14 31 -14 31 -1 0 14 -38 32 -45
21z"/>
<path d="M5100 2185 c0 -5 5 -17 10 -25 5 -8 10 -10 10 -5 0 6 -5 17 -10 25
-5 8 -10 11 -10 5z"/>
<path d="M5201 2164 c0 -11 3 -14 6 -6 3 7 2 16 -1 19 -3 4 -6 -2 -5 -13z"/>
<path d="M3686 2155 c21 -16 44 -19 44 -6 0 10 -24 21 -48 21 -13 0 -12 -3 4
-15z"/>
<path d="M3754 2138 c-8 -12 21 -38 42 -38 27 0 23 20 -5 35 -22 11 -32 12
-37 3z"/>
<path d="M3810 2145 c0 -9 61 -36 73 -32 7 2 -2 11 -20 20 -32 17 -53 22 -53
12z"/>
<path d="M5265 2140 c-3 -5 -1 -10 4 -10 6 0 11 5 11 10 0 6 -2 10 -4 10 -3 0
-8 -4 -11 -10z"/>
<path d="M3900 2102 c0 -12 51 -34 59 -27 7 8 -28 35 -46 35 -7 0 -13 -4 -13
-8z"/>
<path d="M3845 2090 c-6 -9 25 -30 44 -30 20 0 11 17 -14 28 -14 7 -27 7 -30
2z"/>
<path d="M5101 2066 c-9 -10 -8 -15 2 -19 8 -3 13 3 13 14 0 23 0 23 -15 5z"/>
<path d="M3910 2056 c0 -7 12 -17 26 -20 38 -10 41 0 5 19 -26 13 -31 13 -31
1z"/>
<path d="M3994 2055 c11 -8 25 -15 31 -15 7 0 20 -9 30 -20 10 -11 26 -20 37
-20 31 0 20 17 -21 33 -22 9 -42 21 -46 27 -3 5 -16 10 -28 10 -22 -1 -22 -1
-3 -15z"/>
<path d="M5280 2060 c0 -5 5 -10 11 -10 5 0 7 5 4 10 -3 6 -8 10 -11 10 -2 0
-4 -4 -4 -10z"/>
<path d="M5052 2029 c-13 -5 -22 -14 -20 -21 5 -14 30 -24 26 -10 -2 6 6 18
17 26 22 17 12 20 -23 5z"/>
<path d="M3980 2020 c0 -12 48 -32 64 -27 6 2 -3 11 -21 20 -37 20 -43 21 -43
7z"/>
<path d="M5125 2020 c3 -5 10 -10 16 -10 5 0 9 5 9 10 0 6 -7 10 -16 10 -8 0
-12 -4 -9 -10z"/>
<path d="M5098 2003 c7 -3 16 -2 19 1 4 3 -2 6 -13 5 -11 0 -14 -3 -6 -6z"/>
<path d="M5234 1995 c-10 -8 -14 -14 -9 -14 6 0 19 6 29 14 11 8 15 15 10 15
-6 0 -19 -7 -30 -15z"/>
<path d="M4127 1994 c-11 -11 3 -24 25 -24 17 0 18 2 8 15 -13 16 -23 19 -33
9z"/>
<path d="M4946 1981 c-19 -7 -19 -8 2 -13 12 -4 20 -2 17 2 -3 5 1 11 7 13 7
3 9 5 3 6 -5 0 -19 -4 -29 -8z"/>
<path d="M4985 1949 l-30 -19 25 -1 25 -1 -25 -8 c-21 -7 -21 -8 -5 -9 11 0
27 4 35 9 10 6 11 10 3 10 -7 0 -13 5 -13 11 0 6 9 9 20 6 11 -3 23 -1 26 4 3
6 15 7 27 4 20 -5 20 -5 4 5 -14 9 -22 9 -33 0 -10 -9 -14 -9 -14 -1 0 15 -10
13 -45 -10z"/>
<path d="M5140 1960 c0 -5 5 -10 11 -10 5 0 7 5 4 10 -3 6 -8 10 -11 10 -2 0
-4 -4 -4 -10z"/>
<path d="M4856 1952 c-3 -5 1 -9 9 -9 8 0 12 4 9 9 -3 4 -7 8 -9 8 -2 0 -6 -4
-9 -8z"/>
<path d="M4787 1910 c-3 -11 -3 -20 -1 -20 2 0 8 9 14 20 6 11 7 20 2 20 -6 0
-12 -9 -15 -20z"/>
<path d="M4693 1907 c-25 -5 -43 -16 -43 -23 0 -8 5 -14 10 -14 6 0 10 4 10
10 0 5 18 14 40 20 22 6 40 13 40 15 0 6 -3 5 -57 -8z"/>
<path d="M4260 1900 c0 -9 32 -30 46 -30 4 0 -1 9 -11 20 -19 21 -35 26 -35
10z"/>
<path d="M4240 1882 c0 -14 39 -46 47 -39 3 4 -2 16 -12 27 -19 21 -35 26 -35
12z"/>
<path d="M4600 1880 c0 -5 4 -10 9 -10 6 0 13 5 16 10 3 6 -1 10 -9 10 -9 0
-16 -4 -16 -10z"/>
<path d="M4507 1857 c-39 -10 -46 -14 -36 -24 7 -7 22 -13 34 -12 17 1 16 2
-5 9 -21 7 -22 8 -5 9 27 2 105 30 80 30 -11 -1 -42 -6 -68 -12z"/>
<path d="M4620 1860 c0 -5 -10 -11 -22 -11 -21 -1 -21 -2 -3 -6 11 -3 22 -9
25 -13 3 -5 21 -5 40 0 l35 8 -40 2 c-34 2 -36 3 -15 9 22 6 23 8 7 14 -24 9
-27 9 -27 -3z"/>
<path d="M3326 2258 c8 -28 12 -33 20 -25 9 8 -6 47 -17 47 -6 0 -7 -10 -3
-22z"/>
<path d="M3481 2165 c53 -55 101 -108 106 -119 6 -10 13 -14 16 -9 8 12 6 13
-113 128 l-105 100 96 -100z"/>
<path d="M3372 2214 c1 -9 9 -19 16 -22 9 -3 13 2 10 14 -1 9 -9 19 -16 22 -9
3 -13 -2 -10 -14z"/>
<path d="M3340 2191 c0 -10 -3 -28 -7 -38 -6 -17 -6 -17 10 -1 19 19 22 44 7
53 -5 3 -10 -3 -10 -14z"/>
<path d="M3390 2146 c0 -22 3 -27 11 -19 8 8 8 16 0 30 -9 16 -10 14 -11 -11z"/>
<path d="M3580 2105 c0 -8 5 -15 10 -15 6 0 10 7 10 15 0 8 -4 15 -10 15 -5 0
-10 -7 -10 -15z"/>
<path d="M3160 1990 c20 -13 40 -13 40 0 0 6 -12 10 -27 10 -22 0 -25 -2 -13
-10z"/>
<path d="M3225 1960 c-3 -5 3 -10 15 -10 12 0 18 5 15 10 -3 6 -10 10 -15 10
-5 0 -12 -4 -15 -10z"/>
<path d="M3160 1950 c-12 -8 -9 -10 13 -10 15 0 27 5 27 10 0 13 -20 13 -40 0z"/>
<path d="M3100 1940 c0 -5 7 -10 15 -10 8 0 15 5 15 10 0 6 -7 10 -15 10 -8 0
-15 -4 -15 -10z"/>
<path d="M2800 1885 c-13 -14 -19 -25 -13 -25 5 0 20 11 33 25 13 14 19 25 13
25 -5 0 -20 -11 -33 -25z"/>
<path d="M2895 1860 c10 -11 20 -20 23 -20 3 0 -3 9 -13 20 -10 11 -20 20 -23
20 -3 0 3 -9 13 -20z"/>
<path d="M3448 1826 c-31 -11 -38 -36 -10 -36 25 0 44 15 40 32 -2 11 -9 12
-30 4z"/>
<path d="M3370 1790 c-9 -6 -10 -10 -3 -10 6 0 15 5 18 10 8 12 4 12 -15 0z"/>
<path d="M2879 1603 c-13 -16 -12 -17 4 -4 16 13 21 21 13 21 -2 0 -10 -8 -17
-17z"/>
<path d="M2611 1594 c0 -11 3 -14 6 -6 3 7 2 16 -1 19 -3 4 -6 -2 -5 -13z"/>
<path d="M2709 1463 c-13 -16 -12 -17 4 -4 9 7 17 15 17 17 0 8 -8 3 -21 -13z"/>
<path d="M5240 1910 c-13 -8 -13 -10 2 -10 9 0 20 5 23 10 8 13 -5 13 -25 0z"/>
<path d="M5093 1862 c-13 -2 -23 -8 -23 -13 0 -9 37 -3 49 7 8 7 -4 10 -26 6z"/>
<path d="M3700 1841 c0 -10 30 -24 37 -17 3 2 -5 9 -16 16 -12 6 -21 7 -21 1z"/>
<path d="M3875 1770 c3 -5 11 -10 16 -10 6 0 7 5 4 10 -3 6 -11 10 -16 10 -6
0 -7 -4 -4 -10z"/>
<path d="M3947 1769 c6 -6 9 -17 6 -24 -2 -7 5 -16 17 -20 27 -9 36 0 20 20
-10 12 -10 15 1 16 17 1 -20 17 -40 18 -11 1 -12 -2 -4 -10z"/>
<path d="M4745 1760 c-19 -8 -19 -9 3 -9 12 -1 22 4 22 9 0 6 -1 10 -2 9 -2 0
-12 -4 -23 -9z"/>
<path d="M4040 1750 c0 -5 17 -10 38 -9 33 1 34 2 12 9 -36 11 -50 11 -50 0z"/>
<path d="M4655 1740 c-3 -5 1 -10 9 -10 8 0 18 5 21 10 3 6 -1 10 -9 10 -8 0
-18 -4 -21 -10z"/>
<path d="M4173 1733 c9 -2 23 -2 30 0 6 3 -1 5 -18 5 -16 0 -22 -2 -12 -5z"/>
<path d="M4035 1720 c3 -5 16 -10 28 -10 18 0 19 2 7 10 -20 13 -43 13 -35 0z"/>
<path d="M4560 1720 c0 -6 11 -8 28 -4 39 10 40 14 4 14 -18 0 -32 -5 -32 -10z"/>
<path d="M4120 1710 c0 -5 14 -10 32 -10 36 0 35 4 -4 14 -17 4 -28 2 -28 -4z"/>
<path d="M4470 1710 c0 -13 11 -13 30 0 12 8 11 10 -7 10 -13 0 -23 -4 -23
-10z"/>
<path d="M4245 1700 c-4 -6 11 -10 37 -9 36 1 39 2 18 9 -36 11 -48 11 -55 0z"/>
<path d="M4370 1700 c0 -13 20 -13 40 0 12 8 9 10 -12 10 -16 0 -28 -4 -28
-10z"/>
<path d="M5357 1616 c-41 -25 -40 -29 6 -40 19 -4 26 -3 22 4 -3 5 1 10 10 10
12 0 14 4 6 19 -6 10 -7 21 -4 25 12 12 -2 5 -40 -18z"/>
<path d="M5282 1574 c-31 -22 -27 -29 16 -30 20 0 32 1 25 3 -7 2 -10 10 -7
18 8 21 -11 26 -34 9z"/>
<path d="M5410 1580 c-9 -6 -10 -10 -3 -10 6 0 15 5 18 10 8 12 4 12 -15 0z"/>
<path d="M5338 1561 c11 -6 10 -11 -3 -25 -9 -9 -13 -16 -8 -16 13 0 33 22 33
37 0 7 -8 13 -17 13 -14 0 -15 -2 -5 -9z"/>
<path d="M5204 1535 c-10 -7 -16 -17 -12 -21 4 -4 14 -2 21 4 8 7 17 9 20 5 4
-3 7 -1 7 5 0 19 -16 22 -36 7z"/>
<path d="M5441 1514 c0 -11 3 -14 6 -6 3 7 2 16 -1 19 -3 4 -6 -2 -5 -13z"/>
<path d="M5140 1505 c-24 -14 -24 -14 -3 -15 12 0 25 5 28 11 11 17 2 18 -25
4z"/>
<path d="M5256 1507 c3 -10 9 -15 12 -12 3 3 0 11 -7 18 -10 9 -11 8 -5 -6z"/>
<path d="M4993 1499 c-25 -9 -30 -19 -10 -19 15 0 43 17 37 23 -3 3 -15 1 -27
-4z"/>
<path d="M5061 1488 c-22 -6 -30 -13 -24 -19 7 -7 21 -6 44 3 41 17 27 28 -20
16z"/>
<path d="M4975 1460 c-3 -5 3 -10 14 -10 11 0 23 5 26 10 3 6 -3 10 -14 10
-11 0 -23 -4 -26 -10z"/>
<path d="M5451 1444 c0 -11 3 -14 6 -6 3 7 2 16 -1 19 -3 4 -6 -2 -5 -13z"/>
<path d="M4911 1441 c-14 -4 -27 -13 -29 -20 -3 -10 3 -11 29 -6 41 9 49 13
49 26 0 10 -13 10 -49 0z"/>
<path d="M4803 1398 c-35 -17 -27 -27 12 -15 19 6 35 14 35 19 0 11 -20 9 -47
-4z"/>
<path d="M4663 1388 c-13 -6 -23 -15 -23 -20 0 -14 16 -9 41 12 26 21 17 25
-18 8z"/>
<path d="M5340 1383 c0 -7 4 -14 10 -18 5 -3 7 -12 3 -20 -7 -19 3 -54 21 -78
14 -18 15 -18 39 3 l25 22 -24 26 c-18 19 -27 23 -36 14 -8 -8 -8 -15 2 -27 9
-11 15 -13 20 -4 5 7 10 7 14 1 3 -5 -1 -15 -10 -22 -21 -19 -35 -1 -39 50 -1
23 -8 47 -14 53 -8 8 -11 8 -11 0z m60 -63 c0 -5 -2 -10 -4 -10 -3 0 -8 5 -11
10 -3 6 -1 10 4 10 6 0 11 -4 11 -10z"/>
<path d="M4584 1346 c-10 -8 -16 -17 -12 -21 8 -8 48 13 48 25 0 14 -13 12
-36 -4z"/>
<path d="M4520 1295 c-18 -19 -20 -25 -8 -25 19 0 52 36 40 44 -5 3 -20 -6
-32 -19z"/>
<path d="M4554 1264 c-14 -11 -16 -17 -6 -21 9 -3 2 -15 -22 -38 -20 -18 -36
-37 -36 -42 0 -5 28 -35 63 -68 l62 -60 -58 61 -58 61 45 49 c26 30 42 55 37
62 -5 9 -12 8 -27 -4z"/>
<path d="M4482 1248 c-14 -14 -16 -42 -2 -33 14 9 32 45 22 45 -4 0 -13 -5
-20 -12z"/>
<path d="M5363 1215 c0 -27 2 -38 4 -22 2 15 2 37 0 50 -2 12 -4 0 -4 -28z"/>
<path d="M4449 1199 c6 -8 4 -20 -6 -36 -9 -13 -13 -26 -10 -29 3 -3 13 6 23
21 16 24 16 27 1 41 -10 8 -13 9 -8 3z"/>
<path d="M5402 1150 c0 -14 2 -19 5 -12 2 6 2 18 0 25 -3 6 -5 1 -5 -13z"/>
<path d="M5431 1128 c-1 -40 3 -49 22 -58 20 -10 20 -10 5 3 -15 12 -16 19 -7
46 6 18 9 35 5 38 -3 4 -6 -2 -7 -13 -1 -15 -3 -13 -9 6 -7 20 -8 16 -9 -22z"/>
<path d="M4464 1138 c-13 -20 -15 -48 -4 -48 16 0 33 41 22 52 -6 6 -13 5 -18
-4z"/>
<path d="M5381 1118 c-1 -31 15 -46 32 -29 9 9 8 11 -5 6 -13 -5 -18 0 -21 22
l-4 28 -2 -27z"/>
<path d="M4406 1085 c-11 -16 -12 -25 -5 -25 12 0 38 29 39 43 0 16 -18 6 -34
-18z"/>
<path d="M5467 1089 c7 -7 15 -10 18 -7 3 3 -2 9 -12 12 -14 6 -15 5 -6 -5z"/>
<path d="M5370 1077 c0 -4 6 -16 13 -27 8 -15 9 -23 1 -28 -6 -4 -14 -20 -18
-37 -5 -21 -4 -26 3 -15 6 8 14 15 19 15 5 0 20 14 34 30 23 27 24 31 10 45
-14 13 -15 12 -10 -2 4 -9 -2 -24 -12 -36 -10 -11 -16 -23 -12 -28 4 -4 2 -4
-5 0 -9 5 -8 13 3 34 11 21 11 28 1 31 -6 2 -15 9 -19 15 -4 6 -8 8 -8 3z"/>
<path d="M4431 1041 c-14 -24 -14 -31 -1 -31 14 0 32 38 21 45 -6 3 -15 -3
-20 -14z"/>
<path d="M4371 1010 c-11 -33 2 -41 19 -11 12 24 13 41 1 41 -5 0 -14 -13 -20
-30z"/>
<path d="M4635 1010 c10 -11 20 -20 23 -20 3 0 -3 9 -13 20 -10 11 -20 20 -23
20 -3 0 3 -9 13 -20z"/>
<path d="M4381 940 c-13 -39 10 -42 27 -5 15 33 15 35 -2 35 -8 0 -19 -13 -25
-30z"/>
<path d="M4720 928 c24 -27 45 -48 47 -48 8 0 0 9 -44 50 l-48 45 45 -47z"/>
<path d="M4367 884 c-4 -4 -7 -14 -7 -23 0 -11 3 -12 11 -4 6 6 10 16 7 23 -2
6 -7 8 -11 4z"/>
<path d="M4780 866 c0 -2 8 -10 18 -17 15 -13 16 -12 3 4 -13 16 -21 21 -21
13z"/>
<path d="M4336 808 c-11 -41 -8 -52 9 -38 16 13 21 60 6 60 -5 0 -11 -10 -15
-22z"/>
<path d="M4875 770 c10 -11 20 -20 23 -20 3 0 -3 9 -13 20 -10 11 -20 20 -23
20 -3 0 3 -9 13 -20z"/>
<path d="M2356 1451 c-17 -7 -17 -8 -1 -24 15 -15 15 -18 1 -23 -19 -7 -22
-54 -3 -54 9 0 9 -2 -1 -9 -8 -5 -12 -19 -9 -32 l4 -24 8 23 c4 12 11 22 16
22 5 0 9 7 9 15 0 8 -6 15 -12 15 -10 0 -10 2 -1 8 11 7 22 77 13 85 -3 3 -13
1 -24 -2z"/>
<path d="M2370 1280 c0 -5 -7 -10 -15 -10 -17 0 -20 -16 -5 -25 6 -3 10 -1 10
5 0 6 5 8 10 5 6 -3 10 3 10 14 0 12 -2 21 -5 21 -3 0 -5 -4 -5 -10z"/>
<path d="M2180 1246 c0 -2 8 -10 18 -17 15 -13 16 -12 3 4 -13 16 -21 21 -21
13z"/>
<path d="M1600 1169 c0 -5 5 -7 10 -4 6 3 10 8 10 11 0 2 -4 4 -10 4 -5 0 -10
-5 -10 -11z"/>
<path d="M2187 1173 c-14 -13 -6 -23 18 -23 16 0 25 6 25 15 0 15 -31 21 -43
8z"/>
<path d="M1590 1136 c0 -8 5 -18 10 -21 6 -3 10 1 10 9 0 8 -4 18 -10 21 -5 3
-10 -1 -10 -9z"/>
<path d="M2128 1143 c-10 -2 -18 -9 -18 -14 0 -6 -4 -7 -10 -4 -5 3 -10 1 -10
-4 0 -6 -6 -11 -14 -11 -7 0 -24 -8 -37 -18 -13 -11 -36 -22 -51 -25 -15 -4
-33 -13 -40 -20 -7 -6 -17 -12 -23 -12 -25 -1 -75 -17 -75 -25 0 -10 29 -40
38 -40 4 0 14 5 22 11 12 8 10 9 -7 4 -13 -3 -23 -2 -23 3 0 11 47 27 69 23 7
-1 10 2 6 8 -3 6 -2 11 4 11 5 0 12 -6 14 -12 3 -8 6 -7 6 4 1 9 10 20 21 23
11 3 20 11 20 16 0 6 4 7 10 4 5 -3 20 1 32 9 16 10 28 12 38 6 10 -7 11 -10
3 -11 -7 -1 -17 -3 -23 -4 -5 -1 -16 -3 -22 -4 -7 -2 -4 -7 7 -12 17 -7 15 -8
-10 -6 -16 2 -24 2 -17 0 8 -3 12 -13 9 -24 -3 -10 0 -19 6 -19 7 0 7 -4 -1
-12 -10 -10 -15 -10 -22 2 -5 9 -5 19 1 26 6 8 3 13 -11 17 -13 3 -18 1 -13
-6 14 -22 14 -49 1 -41 -10 6 -10 5 -1 -8 7 -8 9 -19 5 -23 -4 -5 7 1 25 14
19 13 30 27 27 36 -6 15 34 60 44 50 4 -4 -4 -15 -17 -26 -13 -10 -19 -19 -13
-19 19 0 53 52 42 65 -5 6 -6 16 -2 20 4 5 1 5 -7 0 -9 -5 -12 -4 -7 3 4 7 15
12 25 12 18 0 41 18 41 32 0 8 -13 9 -42 1z"/>
<path d="M2170 1125 c-7 -9 -8 -15 -2 -15 5 0 12 7 16 15 3 8 4 15 2 15 -2 0
-9 -7 -16 -15z"/>
<path d="M1625 1080 c20 -22 31 -20 22 5 -4 8 -14 15 -23 15 -16 0 -16 -2 1
-20z"/>
<path d="M2135 1090 c-3 -6 1 -7 9 -4 18 7 21 14 7 14 -6 0 -13 -4 -16 -10z"/>
<path d="M2250 1060 c0 -5 5 -10 10 -10 6 0 10 5 10 10 0 6 -4 10 -10 10 -5 0
-10 -4 -10 -10z"/>
<path d="M2317 1059 c7 -7 15 -10 18 -7 3 3 -2 9 -12 12 -14 6 -15 5 -6 -5z"/>
<path d="M1665 1040 c3 -5 13 -10 21 -10 8 0 12 5 9 10 -3 6 -13 10 -21 10 -8
0 -12 -4 -9 -10z"/>
<path d="M1620 1031 c0 -13 29 -35 37 -28 7 8 -15 37 -28 37 -5 0 -9 -4 -9 -9z"/>
<path d="M2226 1024 c-5 -14 -4 -15 9 -4 17 14 19 20 6 20 -5 0 -12 -7 -15
-16z"/>
<path d="M2270 1024 c0 -14 3 -14 15 -4 8 7 15 14 15 16 0 2 -7 4 -15 4 -8 0
-15 -7 -15 -16z"/>
<path d="M2310 1020 c0 -5 5 -10 10 -10 6 0 10 5 10 10 0 6 -4 10 -10 10 -5 0
-10 -4 -10 -10z"/>
<path d="M1710 1010 c0 -5 9 -14 20 -20 22 -12 27 -1 8 18 -14 14 -28 16 -28
2z"/>
<path d="M1813 999 c-13 -5 -23 -13 -23 -19 0 -6 -4 -8 -10 -5 -14 9 -13 -8 2
-23 17 -17 29 -15 26 4 -2 10 5 18 15 20 24 3 27 7 19 21 -4 6 -15 7 -29 2z"/>
<path d="M2365 991 c-2 -5 4 -11 15 -14 11 -3 20 -2 20 3 0 12 -28 21 -35 11z"/>
<path d="M1689 969 c13 -11 26 -17 29 -14 8 8 -20 35 -37 35 -12 -1 -11 -5 8
-21z"/>
<path d="M2109 973 c-13 -16 -12 -17 4 -4 16 13 21 21 13 21 -2 0 -10 -8 -17
-17z"/>
<path d="M2330 985 c1 -17 29 -49 37 -41 4 3 -3 16 -15 29 -12 12 -22 17 -22
12z"/>
<path d="M1825 949 c-6 -19 0 -30 36 -61 24 -21 47 -38 51 -38 19 0 5 20 -37
55 -25 20 -43 41 -40 46 10 16 25 10 25 -10 0 -11 5 -23 11 -26 7 -5 9 3 7 21
-4 38 -43 47 -53 13z"/>
<path d="M2395 940 c6 -18 3 -20 -22 -15 -22 5 -25 4 -13 -5 12 -9 8 -10 -17
-5 -22 4 -33 3 -33 -5 0 -6 5 -8 11 -4 6 3 14 1 18 -5 11 -18 66 14 67 39 1
11 -3 20 -8 20 -5 0 -6 -9 -3 -20z"/>
<path d="M1750 930 c33 -26 48 -26 25 0 -10 11 -25 20 -34 20 -12 0 -9 -6 9
-20z"/>
<path d="M1899 944 c0 -5 -2 -17 -4 -27 -2 -9 5 -22 16 -27 13 -7 19 -7 19 0
0 5 -7 10 -16 10 -8 0 -12 5 -9 10 4 7 13 7 26 0 11 -7 17 -16 12 -23 -4 -7 1
-5 12 3 16 14 16 15 1 18 -9 2 -13 8 -10 14 5 7 2 8 -6 3 -8 -5 -18 -1 -27 10
-7 11 -13 15 -14 9z"/>
<path d="M2063 925 c6 -15 -7 -28 -31 -31 -29 -5 -23 -14 6 -10 29 3 32 1 27
-22 -2 -13 -1 -21 3 -17 10 10 9 95 -1 95 -5 0 -7 -7 -4 -15z"/>
<path d="M1960 926 c0 -2 7 -7 16 -10 8 -3 12 -2 9 4 -6 10 -25 14 -25 6z"/>
<path d="M1800 901 c0 -11 40 -41 54 -41 5 0 -1 11 -14 25 -24 26 -40 32 -40
16z"/>
<path d="M2461 901 c-15 -10 -6 -51 11 -51 5 0 7 7 4 16 -5 14 -4 15 9 4 16
-13 20 -3 9 24 -7 18 -13 19 -33 7z"/>
<path d="M2253 885 c-9 -10 -10 -16 -2 -21 8 -4 7 -9 -2 -15 -11 -7 -11 -9 2
-9 8 0 30 11 49 25 29 21 31 25 13 25 -12 0 -27 2 -35 5 -7 2 -19 -2 -25 -10z
m27 -15 c0 -5 -4 -10 -10 -10 -5 0 -10 5 -10 10 0 6 5 10 10 10 6 0 10 -4 10
-10z"/>
<path d="M2198 843 c7 -3 16 -2 19 1 4 3 -2 6 -13 5 -11 0 -14 -3 -6 -6z"/>
<path d="M2223 820 c-12 -5 -29 -20 -38 -34 -9 -14 -29 -27 -43 -29 l-27 -4
27 -2 c20 -1 40 11 70 39 45 42 46 44 11 30z"/>
<path d="M1940 792 c0 -5 11 -19 25 -32 30 -28 34 -13 5 18 -22 23 -30 27 -30
14z"/>
<path d="M1980 791 c0 -13 29 -35 37 -28 7 8 -15 37 -28 37 -5 0 -9 -4 -9 -9z"/>
<path d="M2037 743 c-7 -11 30 -50 38 -41 3 3 -3 16 -13 28 -11 14 -21 19 -25
13z"/>
<path d="M2530 741 c0 -6 5 -13 10 -16 6 -3 10 1 10 9 0 9 -4 16 -10 16 -5 0
-10 -4 -10 -9z"/>
<path d="M2000 731 c0 -12 31 -43 37 -37 6 6 -20 46 -29 46 -5 0 -8 -4 -8 -9z"/>
<path d="M2080 682 c0 -5 9 -17 20 -27 16 -14 20 -15 20 -4 0 16 -19 39 -32
39 -4 0 -8 -4 -8 -8z"/>
<path d="M2057 673 c-4 -6 5 -21 18 -33 29 -27 33 -16 6 19 -10 13 -21 19 -24
14z"/>
<path d="M2132 623 c16 -34 52 -82 58 -78 10 6 -39 85 -53 85 -5 0 -7 -3 -5
-7z"/>
<path d="M2110 599 c0 -17 37 -56 46 -47 3 3 -6 19 -20 34 -18 21 -25 24 -26
13z"/>
<path d="M5470 970 c0 -5 5 -10 10 -10 6 0 10 5 10 10 0 6 -4 10 -10 10 -5 0
-10 -4 -10 -10z"/>
<path d="M5458 933 c7 -3 16 -2 19 1 4 3 -2 6 -13 5 -11 0 -14 -3 -6 -6z"/>
<path d="M5431 904 c0 -11 3 -14 6 -6 3 7 2 16 -1 19 -3 4 -6 -2 -5 -13z"/>
<path d="M5442 840 c0 -14 2 -19 5 -12 2 6 2 18 0 25 -3 6 -5 1 -5 -13z"/>
<path d="M5465 840 c-3 -5 -1 -10 4 -10 6 0 11 5 11 10 0 6 -2 10 -4 10 -3 0
-8 -4 -11 -10z"/>
<path d="M5491 814 c0 -11 3 -14 6 -6 3 7 2 16 -1 19 -3 4 -6 -2 -5 -13z"/>
<path d="M5408 793 c6 -2 18 -2 25 0 6 3 1 5 -13 5 -14 0 -19 -2 -12 -5z"/>
<path d="M365 830 c27 -27 51 -50 54 -50 3 0 -17 23 -44 50 -27 28 -51 50 -54
50 -3 0 17 -22 44 -50z"/>
<path d="M1250 841 c0 -6 6 -12 13 -13 61 -7 104 -25 182 -75 53 -35 65 -39
65 -23 0 6 -12 16 -27 23 -16 6 -30 14 -33 18 -3 3 -30 20 -60 37 -59 34 -140
53 -140 33z"/>
<path d="M1746 781 c-4 -7 -5 -15 -2 -18 9 -9 19 4 14 18 -4 11 -6 11 -12 0z"/>
<path d="M445 750 c10 -11 20 -20 23 -20 3 0 -3 9 -13 20 -10 11 -20 20 -23
20 -3 0 3 -9 13 -20z"/>
<path d="M1705 740 c-3 -5 1 -10 9 -10 9 0 16 5 16 10 0 6 -4 10 -9 10 -6 0
-13 -4 -16 -10z"/>
<path d="M704 718 l-19 -23 23 19 c21 18 27 26 19 26 -2 0 -12 -10 -23 -22z"/>
<path d="M1520 724 c0 -8 10 -14 26 -14 28 0 25 15 -6 23 -13 3 -20 0 -20 -9z"/>
<path d="M1804 708 l-19 -23 23 19 c21 18 27 26 19 26 -2 0 -12 -10 -23 -22z"/>
<path d="M644 658 l-29 -33 33 29 c30 28 37 36 29 36 -2 0 -16 -15 -33 -32z"/>
<path d="M1636 676 c3 -8 13 -17 22 -21 13 -5 13 -2 -3 15 -21 24 -26 25 -19
6z"/>
<path d="M1714 619 c-3 -6 6 -23 22 -38 l28 -26 -23 27 c-13 14 -20 31 -16 37
3 6 4 11 1 11 -3 0 -8 -5 -12 -11z"/>
<path d="M1654 558 l-29 -33 33 29 c30 28 37 36 29 36 -2 0 -16 -15 -33 -32z"/>
<path d="M2015 570 c-3 -6 1 -7 9 -4 18 7 21 14 7 14 -6 0 -13 -4 -16 -10z"/>
<path d="M359 373 l-24 -28 28 24 c25 23 32 31 24 31 -2 0 -14 -12 -28 -27z"/>
<path d="M1007 189 c7 -7 15 -10 18 -7 3 3 -2 9 -12 12 -14 6 -15 5 -6 -5z"/>
<path d="M5384 188 c-5 -9 -29 -19 -55 -23 -36 -5 -48 -3 -59 10 -13 15 -15
15 -29 -3 -14 -18 -31 -21 -148 -24 -123 -3 -132 -2 -137 15 -2 11 -10 17 -17
15 -15 -5 -32 -48 -19 -48 6 0 10 7 10 15 0 8 5 15 10 15 6 0 10 -7 10 -15 0
-12 14 -15 63 -15 87 0 447 33 447 41 0 4 -9 5 -20 2 -13 -4 -26 1 -34 12 -12
16 -14 17 -22 3z"/>
</g>
</svg>
