<?xml version="1.0" standalone="no"?>
<!DOCTYPE svg PUBLIC "-//W3C//DTD SVG 20010904//EN"
 "http://www.w3.org/TR/2001/REC-SVG-20010904/DTD/svg10.dtd">
<svg version="1.0" xmlns="http://www.w3.org/2000/svg"
 width="500.000000pt" height="500.000000pt" viewBox="0 0 500.000000 500.000000"
 preserveAspectRatio="xMidYMid meet">

<g transform="translate(0.000000,500.000000) scale(0.100000,-0.100000)"
fill="#000000" stroke="none">
<path d="M2557 4142 c-23 -25 -21 -58 3 -82 l21 -21 -106 -487 c-59 -267 -107
-487 -108 -488 -1 -1 -12 -7 -24 -13 -20 -10 -23 -20 -23 -71 0 -44 -4 -61
-16 -68 -12 -7 -13 -11 -5 -17 14 -8 -4 -35 -24 -35 -8 0 -10 -9 -7 -25 3 -19
0 -25 -12 -25 -9 0 -16 -6 -15 -12 3 -28 -2 -38 -18 -38 -13 0 -15 -2 -5 -8
18 -12 4 -42 -22 -43 -11 0 -15 -3 -8 -6 6 -2 12 -12 12 -20 0 -28 -59 -117
-125 -188 -107 -115 -115 -152 -49 -225 51 -57 104 -74 211 -68 113 6 178 30
278 103 11 8 26 11 33 6 16 -10 5 -41 -15 -41 -10 0 -12 -6 -8 -21 5 -16 2
-22 -15 -26 -13 -4 -17 -8 -11 -13 16 -9 2 -40 -18 -40 -13 0 -13 -2 -2 -9 20
-13 -40 -120 -110 -196 -83 -90 -99 -115 -99 -150 0 -80 104 -155 216 -155
129 0 227 37 344 129 83 66 94 80 190 231 78 125 128 180 273 303 77 66 92 96
77 156 -6 25 -23 62 -37 81 -45 61 -203 207 -245 226 -37 17 -44 17 -97 3 -31
-9 -65 -19 -76 -24 -11 -4 3 12 30 36 122 105 145 133 145 176 0 70 -27 112
-144 229 -122 123 -156 141 -231 124 -22 -5 -42 -7 -44 -4 -6 5 -50 577 -50
655 -1 44 3 60 19 74 22 20 26 55 10 86 -14 25 -71 26 -93 1z m77 -8 c9 -8 16
-24 16 -34 0 -22 -26 -50 -46 -50 -15 0 -54 35 -54 48 0 4 7 18 16 30 18 26
46 28 68 6z m-96 -903 c-35 -33 -64 -58 -65 -58 0 1 5 40 12 87 7 47 32 216
55 375 23 160 45 297 48 305 4 8 8 -135 10 -318 l2 -332 -62 -59z m-43 197
c-25 -172 -50 -325 -56 -340 -8 -20 -18 -28 -36 -28 -16 0 -23 5 -20 13 2 6
37 164 78 350 40 186 75 334 77 328 2 -5 -17 -151 -43 -323z m145 74 c9 -135
10 -186 1 -195 -6 -6 -12 -9 -14 -6 -3 2 -7 101 -10 219 -6 251 4 243 23 -18z
m180 -203 c49 -29 90 -70 90 -88 0 -34 -58 -180 -89 -224 -29 -42 -106 -106
-115 -96 -2 2 -6 25 -10 50 -7 44 -6 47 29 70 66 44 136 178 120 228 -9 29
-58 44 -120 38 -44 -4 -55 -3 -55 9 0 36 98 44 150 13z m-160 -18 c0 -12 -29
-35 -36 -28 -11 10 5 37 21 37 8 0 15 -4 15 -9z m166 -36 c21 -28 6 -45 -40
-45 -22 0 -56 -4 -74 -9 -23 -7 -32 -6 -32 2 0 7 -3 22 -6 34 -5 18 -1 25 17
32 38 14 121 5 135 -14z m-216 9 c0 -4 -21 -25 -46 -47 -29 -25 -58 -64 -75
-102 -27 -57 -29 -58 -29 -27 0 38 23 76 84 140 36 37 66 54 66 36z m48 -51
c-2 -27 -8 -39 -20 -41 -14 -3 -18 4 -18 31 0 37 6 47 27 47 10 0 13 -11 11
-37z m-50 -27 c2 -28 -3 -41 -23 -58 -15 -13 -35 -37 -46 -55 -22 -35 -26 -37
-48 -24 -11 7 -9 17 8 57 21 48 88 127 101 119 3 -2 7 -20 8 -39z m442 -121
c0 -31 -34 -66 -133 -137 -58 -42 -174 -177 -190 -221 -9 -24 -14 -1 -20 83
l-5 85 49 34 c77 52 136 151 161 265 l10 50 64 -66 c47 -48 64 -73 64 -93z
m-691 -32 c-1 -10 -4 -29 -8 -43 l-7 -25 -7 27 c-8 29 0 58 14 58 5 0 9 -8 8
-17z m78 3 c-3 -8 -9 -42 -13 -75 -6 -59 -7 -61 -33 -55 -14 4 -30 10 -34 14
-7 6 3 65 19 118 2 6 17 12 35 12 23 0 30 -4 26 -14z m638 -60 c-5 -21 -29
-52 -73 -93 -36 -35 -69 -63 -73 -63 -15 0 -91 -79 -85 -88 4 -6 30 2 66 20
107 55 178 49 248 -23 37 -38 39 -56 12 -133 -48 -139 -106 -207 -224 -262
-69 -32 -73 -35 -95 -91 -74 -181 -187 -292 -298 -293 -39 0 -117 23 -137 41
-4 4 3 22 17 41 13 18 36 56 51 85 l26 52 45 -14 c25 -7 57 -20 70 -29 30 -20
41 -20 25 -1 -7 8 -39 24 -72 36 -42 16 -58 26 -56 38 5 23 63 16 116 -15 24
-14 46 -24 48 -21 8 8 -57 44 -103 59 -24 7 -43 16 -43 21 0 28 90 12 143 -25
15 -11 27 -14 27 -9 0 16 -59 50 -100 57 -48 9 -51 12 -38 33 10 16 17 17 47
9 20 -6 53 -19 73 -29 48 -24 59 -24 29 1 -13 11 -48 27 -77 36 -49 14 -53 17
-44 35 13 23 42 19 113 -17 53 -26 72 -31 46 -11 -12 9 -18 37 -24 100 -4 48
-4 87 -1 87 3 0 21 -8 40 -17 96 -45 65 -180 -83 -363 -38 -47 -67 -87 -65
-90 10 -10 149 170 184 237 12 24 24 61 27 84 4 25 12 43 22 46 43 14 141 66
173 93 43 36 98 140 98 186 0 43 -30 64 -92 64 -110 0 -215 -68 -264 -169 -26
-56 -44 -76 -44 -51 0 21 43 96 81 142 24 29 35 49 28 53 -14 9 -38 -18 -75
-82 -16 -29 -31 -53 -34 -53 -3 0 -7 16 -8 35 -3 35 15 81 41 107 8 8 22 28
30 45 23 43 132 150 177 173 38 20 89 72 91 93 0 7 5 1 10 -12 5 -14 7 -39 4
-55z m-558 38 c23 -23 25 -31 21 -87 -5 -87 -25 -122 -182 -324 -10 -13 -17
-26 -14 -28 5 -6 129 149 166 209 17 27 37 73 43 103 11 50 37 82 53 66 11
-12 6 -96 -7 -112 -8 -9 -20 -32 -27 -51 -45 -119 -145 -250 -215 -281 -52
-24 -129 -24 -182 1 -47 21 -50 26 -29 49 8 9 28 44 46 79 37 72 48 76 129 36
28 -15 55 -24 58 -20 5 5 -70 43 -120 60 -11 3 -17 13 -15 23 5 24 49 19 112
-13 27 -13 51 -23 53 -20 7 6 -64 44 -107 57 -23 7 -40 18 -40 27 0 21 74 8
128 -24 23 -14 42 -20 42 -14 0 14 -98 60 -127 60 -25 0 -26 1 -17 24 9 24 50
19 115 -14 33 -16 59 -26 59 -21 0 12 -98 61 -121 61 -24 0 -33 18 -19 35 10
12 18 12 56 0 25 -7 56 -21 70 -30 14 -9 28 -14 31 -12 2 3 -7 13 -22 23 -22
14 -26 23 -21 48 2 17 8 50 11 74 8 51 32 56 72 16z m165 -75 c2 -42 -1 -54
-17 -65 -36 -26 -45 -18 -45 39 0 46 3 56 23 65 34 16 35 16 39 -39z m13 -176
c8 -102 4 -120 -45 -183 l-20 -25 0 111 c0 61 -3 125 -6 141 -5 24 -1 31 18
40 43 21 46 17 53 -84z m-107 -264 c-32 -43 -140 -124 -215 -161 -75 -36 -192
-49 -266 -29 -43 12 -107 60 -107 79 0 12 75 101 101 119 14 11 25 9 64 -8 58
-26 135 -27 193 -4 63 26 142 118 199 235 l48 98 3 -149 c2 -141 1 -151 -20
-180z m517 221 c8 -7 15 -21 15 -31 0 -16 -8 -19 -50 -19 -98 0 -222 -72 -250
-144 -12 -32 -44 -32 -47 -1 -4 30 47 114 89 148 73 58 200 83 243 47z m211
-152 l26 -37 -19 -33 c-10 -18 -39 -46 -62 -62 -114 -76 -193 -170 -312 -371
-98 -166 -277 -290 -435 -302 -110 -9 -224 36 -224 87 0 19 86 124 106 128 7
2 24 -4 38 -14 39 -25 146 -30 201 -10 63 24 150 123 203 229 23 47 42 90 42
95 0 6 30 24 67 41 148 70 194 131 259 350 5 17 69 -42 110 -101z m-606 20 c0
-29 -55 -138 -70 -138 -4 0 -7 16 -8 36 -1 26 8 51 30 85 17 27 35 49 40 49 4
0 8 -14 8 -32z m9 -145 c1 -37 4 -70 7 -74 10 -17 -16 -18 -55 -2 -22 9 -41
22 -41 30 0 15 70 113 81 113 3 0 7 -30 8 -67z m641 18 c0 -48 -18 -71 -122
-158 -112 -93 -145 -127 -183 -190 -17 -29 -35 -50 -40 -45 -5 4 -5 2 -2 -4 4
-7 -2 -23 -13 -37 -11 -14 -20 -29 -20 -33 0 -4 -21 -35 -46 -68 -53 -69 -136
-142 -160 -139 -8 0 -13 -1 -10 -4 13 -13 -79 -66 -138 -80 -82 -19 -103 -21
-202 -15 -14 1 -22 6 -19 12 3 5 0 7 -7 5 -18 -7 -81 42 -101 78 -15 25 -7 41
8 17 4 -6 28 -21 53 -33 85 -40 237 -24 341 36 43 25 149 107 175 136 10 11
23 18 29 14 6 -3 7 -1 3 6 -4 6 8 30 28 54 19 23 34 44 33 47 0 4 25 49 58
102 46 74 94 133 143 179 71 66 102 91 102 82 0 -4 16 8 35 27 19 19 35 40 35
48 0 7 5 10 10 7 6 -3 10 -23 10 -44z m-740 -18 c0 -28 -105 -120 -185 -162
-83 -43 -154 -60 -240 -57 -80 3 -132 27 -163 75 -9 14 -21 29 -26 33 -6 4 -7
10 -4 13 6 7 16 1 57 -35 9 -8 32 -17 51 -18 19 -2 36 -7 37 -10 2 -4 18 -6
35 -6 88 4 229 51 283 95 11 10 47 39 80 67 61 50 75 51 75 5z m-36 -98 c-4
-8 -13 -15 -21 -15 -13 0 -13 3 -3 15 7 8 16 15 21 15 5 0 6 -7 3 -15z"/>
<path d="M2535 2556 c-41 -58 -55 -68 -55 -40 0 12 -10 8 -39 -15 -22 -18 -53
-36 -70 -42 -47 -16 -39 -33 12 -26 24 3 50 9 59 12 11 4 17 0 20 -12 3 -15
11 -11 50 25 51 47 71 86 66 127 -3 25 -5 23 -43 -29z"/>
<path d="M2825 2025 c-43 -64 -51 -71 -59 -49 -5 13 -11 11 -39 -12 -17 -15
-47 -33 -64 -41 -62 -25 -34 -43 37 -23 23 7 36 7 38 0 9 -26 69 15 105 72 17
27 35 108 24 108 -3 0 -22 -25 -42 -55z"/>
</g>
</svg>
